<svg xmlns="http://www.w3.org/2000/svg" xmlns:xlink="http://www.w3.org/1999/xlink" width="500" zoomAndPan="magnify" viewBox="0 0 375 374.999991" height="500" preserveAspectRatio="xMidYMid meet" version="1.0"><defs><g/><clipPath id="e6339c33de"><path d="M 104.816406 37.292969 L 270.164062 37.292969 L 270.164062 217.5 L 104.816406 217.5 Z M 104.816406 37.292969 " clip-rule="nonzero"/></clipPath><clipPath id="838e1c91cd"><path d="M 227.414062 217.5 L 147.566406 217.5 C 123.953125 217.5 104.816406 198.359375 104.816406 174.75 L 104.816406 80.25 C 104.816406 56.640625 123.953125 37.5 147.566406 37.5 L 227.414062 37.5 C 251.023438 37.5 270.164062 56.640625 270.164062 80.25 L 270.164062 174.75 C 270.164062 198.359375 251.023438 217.5 227.414062 217.5 Z M 227.414062 217.5 " clip-rule="nonzero"/></clipPath><clipPath id="9cb8c87c78"><path d="M 0.816406 0.503906 L 166.164062 0.503906 L 166.164062 180.5 L 0.816406 180.5 Z M 0.816406 0.503906 " clip-rule="nonzero"/></clipPath><clipPath id="26ee708c33"><path d="M 123.414062 180.5 L 43.566406 180.5 C 19.953125 180.5 0.816406 161.359375 0.816406 137.75 L 0.816406 43.25 C 0.816406 19.640625 19.953125 0.5 43.566406 0.5 L 123.414062 0.5 C 147.023438 0.5 166.164062 19.640625 166.164062 43.25 L 166.164062 137.75 C 166.164062 161.359375 147.023438 180.5 123.414062 180.5 Z M 123.414062 180.5 " clip-rule="nonzero"/></clipPath><radialGradient gradientTransform="matrix(-1, 0, 0, -1, 166.164929, 180.503252)" gradientUnits="userSpaceOnUse" r="244.418637" cx="0" id="509a6cf13e" cy="0" fx="0" fy="0"><stop stop-opacity="1" stop-color="rgb(13.383484%, 0%, 33.462524%)" offset="0"/><stop stop-opacity="1" stop-color="rgb(13.467407%, 0%, 33.662415%)" offset="0.0078125"/><stop stop-opacity="1" stop-color="rgb(13.522339%, 0%, 33.795166%)" offset="0.0117188"/><stop stop-opacity="1" stop-color="rgb(13.577271%, 0%, 33.927917%)" offset="0.015625"/><stop stop-opacity="1" stop-color="rgb(13.632202%, 0%, 34.062195%)" offset="0.0195312"/><stop stop-opacity="1" stop-color="rgb(13.687134%, 0%, 34.194946%)" offset="0.0234375"/><stop stop-opacity="1" stop-color="rgb(13.742065%, 0%, 34.327698%)" offset="0.0273438"/><stop stop-opacity="1" stop-color="rgb(13.798523%, 0%, 34.461975%)" offset="0.03125"/><stop stop-opacity="1" stop-color="rgb(13.853455%, 0%, 34.594727%)" offset="0.0351562"/><stop stop-opacity="1" stop-color="rgb(13.908386%, 0%, 34.727478%)" offset="0.0390625"/><stop stop-opacity="1" stop-color="rgb(13.963318%, 0%, 34.861755%)" offset="0.0429688"/><stop stop-opacity="1" stop-color="rgb(14.01825%, 0%, 34.994507%)" offset="0.046875"/><stop stop-opacity="1" stop-color="rgb(14.073181%, 0%, 35.128784%)" offset="0.0507812"/><stop stop-opacity="1" stop-color="rgb(14.129639%, 0%, 35.261536%)" offset="0.0546875"/><stop stop-opacity="1" stop-color="rgb(14.18457%, 0%, 35.394287%)" offset="0.0585938"/><stop stop-opacity="1" stop-color="rgb(14.239502%, 0%, 35.528564%)" offset="0.0625"/><stop stop-opacity="1" stop-color="rgb(14.294434%, 0%, 35.661316%)" offset="0.0664062"/><stop stop-opacity="1" stop-color="rgb(14.349365%, 0%, 35.794067%)" offset="0.0703125"/><stop stop-opacity="1" stop-color="rgb(14.404297%, 0%, 35.928345%)" offset="0.0742188"/><stop stop-opacity="1" stop-color="rgb(14.459229%, 0%, 36.061096%)" offset="0.078125"/><stop stop-opacity="1" stop-color="rgb(14.515686%, 0%, 36.193848%)" offset="0.0820312"/><stop stop-opacity="1" stop-color="rgb(14.570618%, 0%, 36.328125%)" offset="0.0859375"/><stop stop-opacity="1" stop-color="rgb(14.625549%, 0%, 36.460876%)" offset="0.0898438"/><stop stop-opacity="1" stop-color="rgb(14.680481%, 0%, 36.593628%)" offset="0.09375"/><stop stop-opacity="1" stop-color="rgb(14.735413%, 0%, 36.727905%)" offset="0.0976562"/><stop stop-opacity="1" stop-color="rgb(14.790344%, 0%, 36.860657%)" offset="0.101562"/><stop stop-opacity="1" stop-color="rgb(14.845276%, 0%, 36.993408%)" offset="0.105469"/><stop stop-opacity="1" stop-color="rgb(14.901733%, 0%, 37.127686%)" offset="0.109375"/><stop stop-opacity="1" stop-color="rgb(14.956665%, 0%, 37.260437%)" offset="0.113281"/><stop stop-opacity="1" stop-color="rgb(15.011597%, 0%, 37.393188%)" offset="0.117188"/><stop stop-opacity="1" stop-color="rgb(15.066528%, 0%, 37.527466%)" offset="0.121094"/><stop stop-opacity="1" stop-color="rgb(15.12146%, 0%, 37.660217%)" offset="0.125"/><stop stop-opacity="1" stop-color="rgb(15.176392%, 0%, 37.792969%)" offset="0.128906"/><stop stop-opacity="1" stop-color="rgb(15.231323%, 0%, 37.927246%)" offset="0.132812"/><stop stop-opacity="1" stop-color="rgb(15.287781%, 0%, 38.059998%)" offset="0.136719"/><stop stop-opacity="1" stop-color="rgb(15.342712%, 0%, 38.192749%)" offset="0.140625"/><stop stop-opacity="1" stop-color="rgb(15.397644%, 0%, 38.327026%)" offset="0.144531"/><stop stop-opacity="1" stop-color="rgb(15.452576%, 0%, 38.459778%)" offset="0.148438"/><stop stop-opacity="1" stop-color="rgb(15.507507%, 0%, 38.594055%)" offset="0.152344"/><stop stop-opacity="1" stop-color="rgb(15.562439%, 0%, 38.726807%)" offset="0.15625"/><stop stop-opacity="1" stop-color="rgb(15.617371%, 0%, 38.859558%)" offset="0.160156"/><stop stop-opacity="1" stop-color="rgb(15.673828%, 0%, 38.993835%)" offset="0.164062"/><stop stop-opacity="1" stop-color="rgb(15.72876%, 0%, 39.126587%)" offset="0.167969"/><stop stop-opacity="1" stop-color="rgb(15.783691%, 0%, 39.259338%)" offset="0.171875"/><stop stop-opacity="1" stop-color="rgb(15.838623%, 0%, 39.393616%)" offset="0.175781"/><stop stop-opacity="1" stop-color="rgb(15.893555%, 0%, 39.526367%)" offset="0.179688"/><stop stop-opacity="1" stop-color="rgb(15.948486%, 0%, 39.659119%)" offset="0.183594"/><stop stop-opacity="1" stop-color="rgb(16.004944%, 0%, 39.793396%)" offset="0.1875"/><stop stop-opacity="1" stop-color="rgb(16.059875%, 0%, 39.926147%)" offset="0.191406"/><stop stop-opacity="1" stop-color="rgb(16.114807%, 0%, 40.058899%)" offset="0.195312"/><stop stop-opacity="1" stop-color="rgb(16.169739%, 0%, 40.193176%)" offset="0.199219"/><stop stop-opacity="1" stop-color="rgb(16.22467%, 0%, 40.325928%)" offset="0.203125"/><stop stop-opacity="1" stop-color="rgb(16.279602%, 0%, 40.458679%)" offset="0.207031"/><stop stop-opacity="1" stop-color="rgb(16.334534%, 0%, 40.592957%)" offset="0.210938"/><stop stop-opacity="1" stop-color="rgb(16.390991%, 0%, 40.725708%)" offset="0.214844"/><stop stop-opacity="1" stop-color="rgb(16.445923%, 0%, 40.858459%)" offset="0.21875"/><stop stop-opacity="1" stop-color="rgb(16.500854%, 0%, 40.992737%)" offset="0.222656"/><stop stop-opacity="1" stop-color="rgb(16.555786%, 0%, 41.125488%)" offset="0.226562"/><stop stop-opacity="1" stop-color="rgb(16.610718%, 0%, 41.25824%)" offset="0.230469"/><stop stop-opacity="1" stop-color="rgb(16.665649%, 0%, 41.392517%)" offset="0.234375"/><stop stop-opacity="1" stop-color="rgb(16.720581%, 0%, 41.525269%)" offset="0.238281"/><stop stop-opacity="1" stop-color="rgb(16.777039%, 0%, 41.659546%)" offset="0.242188"/><stop stop-opacity="1" stop-color="rgb(16.83197%, 0%, 41.792297%)" offset="0.246094"/><stop stop-opacity="1" stop-color="rgb(16.886902%, 0%, 41.925049%)" offset="0.25"/><stop stop-opacity="1" stop-color="rgb(16.969299%, 0%, 42.124939%)" offset="0.253906"/><stop stop-opacity="1" stop-color="rgb(17.079163%, 0%, 42.391968%)" offset="0.261719"/><stop stop-opacity="1" stop-color="rgb(17.190552%, 0%, 42.658997%)" offset="0.269531"/><stop stop-opacity="1" stop-color="rgb(17.300415%, 0%, 42.9245%)" offset="0.277344"/><stop stop-opacity="1" stop-color="rgb(17.410278%, 0%, 43.191528%)" offset="0.285156"/><stop stop-opacity="1" stop-color="rgb(17.520142%, 0%, 43.458557%)" offset="0.292969"/><stop stop-opacity="1" stop-color="rgb(17.631531%, 0%, 43.72406%)" offset="0.300781"/><stop stop-opacity="1" stop-color="rgb(17.741394%, 0%, 43.991089%)" offset="0.308594"/><stop stop-opacity="1" stop-color="rgb(17.851257%, 0%, 44.258118%)" offset="0.316406"/><stop stop-opacity="1" stop-color="rgb(17.962646%, 0%, 44.523621%)" offset="0.324219"/><stop stop-opacity="1" stop-color="rgb(18.07251%, 0%, 44.790649%)" offset="0.332031"/><stop stop-opacity="1" stop-color="rgb(18.182373%, 0%, 45.057678%)" offset="0.339844"/><stop stop-opacity="1" stop-color="rgb(18.293762%, 0%, 45.324707%)" offset="0.347656"/><stop stop-opacity="1" stop-color="rgb(18.403625%, 0%, 45.59021%)" offset="0.355469"/><stop stop-opacity="1" stop-color="rgb(18.513489%, 0%, 45.857239%)" offset="0.363281"/><stop stop-opacity="1" stop-color="rgb(18.623352%, 0%, 46.124268%)" offset="0.371094"/><stop stop-opacity="1" stop-color="rgb(18.734741%, 0%, 46.389771%)" offset="0.378906"/><stop stop-opacity="1" stop-color="rgb(18.844604%, 0%, 46.656799%)" offset="0.386719"/><stop stop-opacity="1" stop-color="rgb(18.954468%, 0%, 46.923828%)" offset="0.394531"/><stop stop-opacity="1" stop-color="rgb(19.065857%, 0%, 47.189331%)" offset="0.402344"/><stop stop-opacity="1" stop-color="rgb(19.17572%, 0%, 47.45636%)" offset="0.410156"/><stop stop-opacity="1" stop-color="rgb(19.285583%, 0%, 47.723389%)" offset="0.417969"/><stop stop-opacity="1" stop-color="rgb(19.395447%, 0%, 47.988892%)" offset="0.425781"/><stop stop-opacity="1" stop-color="rgb(19.506836%, 0%, 48.25592%)" offset="0.433594"/><stop stop-opacity="1" stop-color="rgb(19.616699%, 0%, 48.522949%)" offset="0.441406"/><stop stop-opacity="1" stop-color="rgb(19.726562%, 0%, 48.789978%)" offset="0.449219"/><stop stop-opacity="1" stop-color="rgb(19.837952%, 0%, 49.055481%)" offset="0.457031"/><stop stop-opacity="1" stop-color="rgb(19.947815%, 0%, 49.32251%)" offset="0.464844"/><stop stop-opacity="1" stop-color="rgb(20.057678%, 0%, 49.589539%)" offset="0.472656"/><stop stop-opacity="1" stop-color="rgb(20.169067%, 0%, 49.855042%)" offset="0.480469"/><stop stop-opacity="1" stop-color="rgb(20.278931%, 0%, 50.12207%)" offset="0.488281"/><stop stop-opacity="1" stop-color="rgb(20.388794%, 0%, 50.389099%)" offset="0.496094"/><stop stop-opacity="1" stop-color="rgb(20.471191%, 0%, 50.588989%)" offset="0.503906"/><stop stop-opacity="1" stop-color="rgb(20.527649%, 0%, 50.721741%)" offset="0.507812"/><stop stop-opacity="1" stop-color="rgb(20.582581%, 0%, 50.854492%)" offset="0.511719"/><stop stop-opacity="1" stop-color="rgb(20.637512%, 0%, 50.98877%)" offset="0.515625"/><stop stop-opacity="1" stop-color="rgb(20.692444%, 0%, 51.121521%)" offset="0.519531"/><stop stop-opacity="1" stop-color="rgb(20.747375%, 0%, 51.255798%)" offset="0.523438"/><stop stop-opacity="1" stop-color="rgb(20.802307%, 0%, 51.38855%)" offset="0.527344"/><stop stop-opacity="1" stop-color="rgb(20.857239%, 0%, 51.521301%)" offset="0.53125"/><stop stop-opacity="1" stop-color="rgb(20.913696%, 0%, 51.655579%)" offset="0.535156"/><stop stop-opacity="1" stop-color="rgb(20.968628%, 0%, 51.78833%)" offset="0.539062"/><stop stop-opacity="1" stop-color="rgb(21.02356%, 0%, 51.921082%)" offset="0.542969"/><stop stop-opacity="1" stop-color="rgb(21.078491%, 0%, 52.055359%)" offset="0.546875"/><stop stop-opacity="1" stop-color="rgb(21.133423%, 0%, 52.18811%)" offset="0.550781"/><stop stop-opacity="1" stop-color="rgb(21.188354%, 0%, 52.320862%)" offset="0.554688"/><stop stop-opacity="1" stop-color="rgb(21.243286%, 0%, 52.455139%)" offset="0.558594"/><stop stop-opacity="1" stop-color="rgb(21.299744%, 0%, 52.587891%)" offset="0.5625"/><stop stop-opacity="1" stop-color="rgb(21.354675%, 0%, 52.720642%)" offset="0.566406"/><stop stop-opacity="1" stop-color="rgb(21.409607%, 0%, 52.854919%)" offset="0.570312"/><stop stop-opacity="1" stop-color="rgb(21.464539%, 0%, 52.987671%)" offset="0.574219"/><stop stop-opacity="1" stop-color="rgb(21.51947%, 0%, 53.120422%)" offset="0.578125"/><stop stop-opacity="1" stop-color="rgb(21.574402%, 0%, 53.2547%)" offset="0.582031"/><stop stop-opacity="1" stop-color="rgb(21.630859%, 0%, 53.387451%)" offset="0.585938"/><stop stop-opacity="1" stop-color="rgb(21.685791%, 0%, 53.520203%)" offset="0.589844"/><stop stop-opacity="1" stop-color="rgb(21.740723%, 0%, 53.65448%)" offset="0.59375"/><stop stop-opacity="1" stop-color="rgb(21.795654%, 0%, 53.787231%)" offset="0.597656"/><stop stop-opacity="1" stop-color="rgb(21.850586%, 0%, 53.919983%)" offset="0.601562"/><stop stop-opacity="1" stop-color="rgb(21.905518%, 0%, 54.05426%)" offset="0.605469"/><stop stop-opacity="1" stop-color="rgb(21.960449%, 0%, 54.187012%)" offset="0.609375"/><stop stop-opacity="1" stop-color="rgb(22.016907%, 0%, 54.321289%)" offset="0.613281"/><stop stop-opacity="1" stop-color="rgb(22.071838%, 0%, 54.454041%)" offset="0.617188"/><stop stop-opacity="1" stop-color="rgb(22.12677%, 0%, 54.586792%)" offset="0.621094"/><stop stop-opacity="1" stop-color="rgb(22.181702%, 0%, 54.721069%)" offset="0.625"/><stop stop-opacity="1" stop-color="rgb(22.264099%, 0%, 54.920959%)" offset="0.628906"/><stop stop-opacity="1" stop-color="rgb(22.373962%, 0%, 55.186462%)" offset="0.636719"/><stop stop-opacity="1" stop-color="rgb(22.485352%, 0%, 55.453491%)" offset="0.644531"/><stop stop-opacity="1" stop-color="rgb(22.595215%, 0%, 55.72052%)" offset="0.652344"/><stop stop-opacity="1" stop-color="rgb(22.705078%, 0%, 55.986023%)" offset="0.660156"/><stop stop-opacity="1" stop-color="rgb(22.816467%, 0%, 56.253052%)" offset="0.667969"/><stop stop-opacity="1" stop-color="rgb(22.926331%, 0%, 56.520081%)" offset="0.675781"/><stop stop-opacity="1" stop-color="rgb(23.036194%, 0%, 56.785583%)" offset="0.683594"/><stop stop-opacity="1" stop-color="rgb(23.147583%, 0%, 57.052612%)" offset="0.691406"/><stop stop-opacity="1" stop-color="rgb(23.257446%, 0%, 57.319641%)" offset="0.699219"/><stop stop-opacity="1" stop-color="rgb(23.36731%, 0%, 57.585144%)" offset="0.707031"/><stop stop-opacity="1" stop-color="rgb(23.477173%, 0%, 57.852173%)" offset="0.714844"/><stop stop-opacity="1" stop-color="rgb(23.588562%, 0%, 58.119202%)" offset="0.722656"/><stop stop-opacity="1" stop-color="rgb(23.698425%, 0%, 58.38623%)" offset="0.730469"/><stop stop-opacity="1" stop-color="rgb(23.808289%, 0%, 58.651733%)" offset="0.738281"/><stop stop-opacity="1" stop-color="rgb(23.919678%, 0%, 58.918762%)" offset="0.746094"/><stop stop-opacity="1" stop-color="rgb(24.002075%, 0%, 59.118652%)" offset="0.753906"/><stop stop-opacity="1" stop-color="rgb(24.057007%, 0%, 59.251404%)" offset="0.757812"/><stop stop-opacity="1" stop-color="rgb(24.111938%, 0%, 59.385681%)" offset="0.761719"/><stop stop-opacity="1" stop-color="rgb(24.16687%, 0%, 59.518433%)" offset="0.765625"/><stop stop-opacity="1" stop-color="rgb(24.221802%, 0%, 59.651184%)" offset="0.769531"/><stop stop-opacity="1" stop-color="rgb(24.278259%, 0%, 59.785461%)" offset="0.773438"/><stop stop-opacity="1" stop-color="rgb(24.333191%, 0%, 59.918213%)" offset="0.777344"/><stop stop-opacity="1" stop-color="rgb(24.388123%, 0%, 60.050964%)" offset="0.78125"/><stop stop-opacity="1" stop-color="rgb(24.443054%, 0%, 60.185242%)" offset="0.785156"/><stop stop-opacity="1" stop-color="rgb(24.497986%, 0%, 60.317993%)" offset="0.789062"/><stop stop-opacity="1" stop-color="rgb(24.552917%, 0%, 60.450745%)" offset="0.792969"/><stop stop-opacity="1" stop-color="rgb(24.607849%, 0%, 60.585022%)" offset="0.796875"/><stop stop-opacity="1" stop-color="rgb(24.664307%, 0%, 60.717773%)" offset="0.800781"/><stop stop-opacity="1" stop-color="rgb(24.719238%, 0%, 60.852051%)" offset="0.804688"/><stop stop-opacity="1" stop-color="rgb(24.77417%, 0%, 60.984802%)" offset="0.808594"/><stop stop-opacity="1" stop-color="rgb(24.829102%, 0%, 61.117554%)" offset="0.8125"/><stop stop-opacity="1" stop-color="rgb(24.911499%, 0%, 61.317444%)" offset="0.816406"/><stop stop-opacity="1" stop-color="rgb(25.022888%, 0%, 61.584473%)" offset="0.824219"/><stop stop-opacity="1" stop-color="rgb(25.132751%, 0%, 61.851501%)" offset="0.832031"/><stop stop-opacity="1" stop-color="rgb(25.242615%, 0%, 62.117004%)" offset="0.839844"/><stop stop-opacity="1" stop-color="rgb(25.352478%, 0%, 62.384033%)" offset="0.847656"/><stop stop-opacity="1" stop-color="rgb(25.463867%, 0%, 62.651062%)" offset="0.855469"/><stop stop-opacity="1" stop-color="rgb(25.57373%, 0%, 62.916565%)" offset="0.863281"/><stop stop-opacity="1" stop-color="rgb(25.683594%, 0%, 63.183594%)" offset="0.871094"/><stop stop-opacity="1" stop-color="rgb(25.767517%, 0%, 63.383484%)" offset="0.878906"/><stop stop-opacity="1" stop-color="rgb(25.822449%, 0%, 63.516235%)" offset="0.882812"/><stop stop-opacity="1" stop-color="rgb(25.87738%, 0%, 63.650513%)" offset="0.886719"/><stop stop-opacity="1" stop-color="rgb(25.932312%, 0%, 63.783264%)" offset="0.890625"/><stop stop-opacity="1" stop-color="rgb(25.987244%, 0%, 63.917542%)" offset="0.894531"/><stop stop-opacity="1" stop-color="rgb(26.042175%, 0%, 64.050293%)" offset="0.898438"/><stop stop-opacity="1" stop-color="rgb(26.097107%, 0%, 64.183044%)" offset="0.902344"/><stop stop-opacity="1" stop-color="rgb(26.153564%, 0%, 64.317322%)" offset="0.90625"/><stop stop-opacity="1" stop-color="rgb(26.235962%, 0%, 64.517212%)" offset="0.910156"/><stop stop-opacity="1" stop-color="rgb(26.345825%, 0%, 64.782715%)" offset="0.917969"/><stop stop-opacity="1" stop-color="rgb(26.455688%, 0%, 65.049744%)" offset="0.925781"/><stop stop-opacity="1" stop-color="rgb(26.567078%, 0%, 65.316772%)" offset="0.933594"/><stop stop-opacity="1" stop-color="rgb(26.649475%, 0%, 65.516663%)" offset="0.941406"/><stop stop-opacity="1" stop-color="rgb(26.704407%, 0%, 65.649414%)" offset="0.945312"/><stop stop-opacity="1" stop-color="rgb(26.759338%, 0%, 65.782166%)" offset="0.949219"/><stop stop-opacity="1" stop-color="rgb(26.81427%, 0%, 65.916443%)" offset="0.953125"/><stop stop-opacity="1" stop-color="rgb(26.898193%, 0%, 66.116333%)" offset="0.957031"/><stop stop-opacity="1" stop-color="rgb(27.008057%, 0%, 66.381836%)" offset="0.964844"/><stop stop-opacity="1" stop-color="rgb(27.090454%, 0%, 66.581726%)" offset="0.972656"/><stop stop-opacity="1" stop-color="rgb(27.145386%, 0%, 66.716003%)" offset="0.976562"/><stop stop-opacity="1" stop-color="rgb(27.227783%, 0%, 66.915894%)" offset="0.980469"/><stop stop-opacity="1" stop-color="rgb(27.311707%, 0%, 67.115784%)" offset="0.988281"/><stop stop-opacity="1" stop-color="rgb(27.394104%, 0%, 67.315674%)" offset="0.992188"/><stop stop-opacity="1" stop-color="rgb(27.449036%, 0%, 67.449951%)" offset="1"/></radialGradient><clipPath id="01426d8e5b"><rect x="0" width="167" y="0" height="181"/></clipPath><clipPath id="e8055bab48"><path d="M 160.175781 135.117188 L 168.066406 135.117188 L 168.066406 177.59375 L 160.175781 177.59375 Z M 160.175781 135.117188 " clip-rule="nonzero"/></clipPath><clipPath id="0ce2485a6d"><path d="M 163.761719 135.117188 L 164.484375 135.117188 C 165.433594 135.117188 166.347656 135.496094 167.019531 136.167969 C 167.691406 136.839844 168.066406 137.75 168.066406 138.699219 L 168.066406 174.003906 C 168.066406 174.953125 167.691406 175.867188 167.019531 176.539062 C 166.347656 177.210938 165.433594 177.585938 164.484375 177.585938 L 163.761719 177.585938 C 162.808594 177.585938 161.898438 177.210938 161.226562 176.539062 C 160.554688 175.867188 160.175781 174.953125 160.175781 174.003906 L 160.175781 138.699219 C 160.175781 137.75 160.554688 136.839844 161.226562 136.167969 C 161.898438 135.496094 162.808594 135.117188 163.761719 135.117188 Z M 163.761719 135.117188 " clip-rule="nonzero"/></clipPath><clipPath id="d78fb31de0"><path d="M 0.175781 0.117188 L 8.066406 0.117188 L 8.066406 42.59375 L 0.175781 42.59375 Z M 0.175781 0.117188 " clip-rule="nonzero"/></clipPath><clipPath id="265e6dd473"><path d="M 3.761719 0.117188 L 4.484375 0.117188 C 5.433594 0.117188 6.347656 0.496094 7.019531 1.167969 C 7.691406 1.839844 8.066406 2.75 8.066406 3.699219 L 8.066406 39.003906 C 8.066406 39.953125 7.691406 40.867188 7.019531 41.539062 C 6.347656 42.210938 5.433594 42.585938 4.484375 42.585938 L 3.761719 42.585938 C 2.808594 42.585938 1.898438 42.210938 1.226562 41.539062 C 0.554688 40.867188 0.175781 39.953125 0.175781 39.003906 L 0.175781 3.699219 C 0.175781 2.75 0.554688 1.839844 1.226562 1.167969 C 1.898438 0.496094 2.808594 0.117188 3.761719 0.117188 Z M 3.761719 0.117188 " clip-rule="nonzero"/></clipPath><clipPath id="a2982943b2"><rect x="0" width="9" y="0" height="43"/></clipPath><clipPath id="9a2c0a10a2"><path d="M 181.929688 109.195312 L 189.636719 109.195312 L 189.636719 177.609375 L 181.929688 177.609375 Z M 181.929688 109.195312 " clip-rule="nonzero"/></clipPath><clipPath id="e67ccb3a37"><path d="M 185.511719 109.195312 L 186.054688 109.195312 C 187.003906 109.195312 187.917969 109.574219 188.589844 110.246094 C 189.261719 110.917969 189.636719 111.828125 189.636719 112.78125 L 189.636719 174.003906 C 189.636719 174.953125 189.261719 175.867188 188.589844 176.539062 C 187.917969 177.210938 187.003906 177.585938 186.054688 177.585938 L 185.511719 177.585938 C 184.5625 177.585938 183.652344 177.210938 182.980469 176.539062 C 182.308594 175.867188 181.929688 174.953125 181.929688 174.003906 L 181.929688 112.78125 C 181.929688 111.828125 182.308594 110.917969 182.980469 110.246094 C 183.652344 109.574219 184.5625 109.195312 185.511719 109.195312 Z M 185.511719 109.195312 " clip-rule="nonzero"/></clipPath><clipPath id="9639b3259b"><path d="M 0.929688 0.195312 L 8.636719 0.195312 L 8.636719 68.601562 L 0.929688 68.601562 Z M 0.929688 0.195312 " clip-rule="nonzero"/></clipPath><clipPath id="fe1fc2ccd9"><path d="M 4.511719 0.195312 L 5.054688 0.195312 C 6.003906 0.195312 6.917969 0.574219 7.589844 1.246094 C 8.261719 1.917969 8.636719 2.828125 8.636719 3.78125 L 8.636719 65.003906 C 8.636719 65.953125 8.261719 66.867188 7.589844 67.539062 C 6.917969 68.210938 6.003906 68.585938 5.054688 68.585938 L 4.511719 68.585938 C 3.5625 68.585938 2.652344 68.210938 1.980469 67.539062 C 1.308594 66.867188 0.929688 65.953125 0.929688 65.003906 L 0.929688 3.78125 C 0.929688 2.828125 1.308594 1.917969 1.980469 1.246094 C 2.652344 0.574219 3.5625 0.195312 4.511719 0.195312 Z M 4.511719 0.195312 " clip-rule="nonzero"/></clipPath><clipPath id="c9b51cb0c9"><rect x="0" width="9" y="0" height="69"/></clipPath><clipPath id="143ee9a42d"><path d="M 203.597656 73.640625 L 211.304688 73.640625 L 211.304688 177.613281 L 203.597656 177.613281 Z M 203.597656 73.640625 " clip-rule="nonzero"/></clipPath><clipPath id="a817b1e7e2"><path d="M 207.179688 73.640625 L 207.71875 73.640625 C 208.671875 73.640625 209.582031 74.015625 210.253906 74.6875 C 210.925781 75.359375 211.304688 76.273438 211.304688 77.222656 L 211.304688 174.003906 C 211.304688 174.953125 210.925781 175.867188 210.253906 176.539062 C 209.582031 177.210938 208.671875 177.585938 207.71875 177.585938 L 207.179688 177.585938 C 206.230469 177.585938 205.316406 177.210938 204.644531 176.539062 C 203.972656 175.867188 203.597656 174.953125 203.597656 174.003906 L 203.597656 77.222656 C 203.597656 76.273438 203.972656 75.359375 204.644531 74.6875 C 205.316406 74.015625 206.230469 73.640625 207.179688 73.640625 Z M 207.179688 73.640625 " clip-rule="nonzero"/></clipPath><clipPath id="f55c2822ff"><path d="M 0.597656 0.640625 L 8.304688 0.640625 L 8.304688 104.601562 L 0.597656 104.601562 Z M 0.597656 0.640625 " clip-rule="nonzero"/></clipPath><clipPath id="a14aed4bb4"><path d="M 4.179688 0.640625 L 4.71875 0.640625 C 5.671875 0.640625 6.582031 1.015625 7.253906 1.6875 C 7.925781 2.359375 8.304688 3.273438 8.304688 4.222656 L 8.304688 101.003906 C 8.304688 101.953125 7.925781 102.867188 7.253906 103.539062 C 6.582031 104.210938 5.671875 104.585938 4.71875 104.585938 L 4.179688 104.585938 C 3.230469 104.585938 2.316406 104.210938 1.644531 103.539062 C 0.972656 102.867188 0.597656 101.953125 0.597656 101.003906 L 0.597656 4.222656 C 0.597656 3.273438 0.972656 2.359375 1.644531 1.6875 C 2.316406 1.015625 3.230469 0.640625 4.179688 0.640625 Z M 4.179688 0.640625 " clip-rule="nonzero"/></clipPath><clipPath id="9b6c00d0fd"><rect x="0" width="9" y="0" height="105"/></clipPath><clipPath id="34d4960e65"><rect x="0" width="375" y="0" height="94"/></clipPath></defs><g clip-path="url(#e6339c33de)"><g clip-path="url(#838e1c91cd)"><g transform="matrix(1, 0, 0, 1, 104, 37)"><g clip-path="url(#01426d8e5b)"><g clip-path="url(#9cb8c87c78)"><g clip-path="url(#26ee708c33)"><path fill="url(#509a6cf13e)" d="M 166.164062 180.5 L 166.164062 0.503906 L 0.816406 0.503906 L 0.816406 180.5 Z M 166.164062 180.5 " fill-rule="nonzero"/></g></g></g></g></g></g><g clip-path="url(#e8055bab48)"><g clip-path="url(#0ce2485a6d)"><g transform="matrix(1, 0, 0, 1, 160, 135)"><g clip-path="url(#a2982943b2)"><g clip-path="url(#d78fb31de0)"><g clip-path="url(#265e6dd473)"><path fill="#ffffff" d="M 0.175781 0.117188 L 8.066406 0.117188 L 8.066406 42.59375 L 0.175781 42.59375 Z M 0.175781 0.117188 " fill-opacity="1" fill-rule="nonzero"/></g></g></g></g></g></g><g clip-path="url(#9a2c0a10a2)"><g clip-path="url(#e67ccb3a37)"><g transform="matrix(1, 0, 0, 1, 181, 109)"><g clip-path="url(#c9b51cb0c9)"><g clip-path="url(#9639b3259b)"><g clip-path="url(#fe1fc2ccd9)"><path fill="#ffffff" d="M 0.929688 0.195312 L 8.636719 0.195312 L 8.636719 68.578125 L 0.929688 68.578125 Z M 0.929688 0.195312 " fill-opacity="1" fill-rule="nonzero"/></g></g></g></g></g></g><g clip-path="url(#143ee9a42d)"><g clip-path="url(#a817b1e7e2)"><g transform="matrix(1, 0, 0, 1, 203, 73)"><g clip-path="url(#9b6c00d0fd)"><g clip-path="url(#f55c2822ff)"><g clip-path="url(#a14aed4bb4)"><path fill="#ffffff" d="M 0.597656 0.640625 L 8.304688 0.640625 L 8.304688 104.582031 L 0.597656 104.582031 Z M 0.597656 0.640625 " fill-opacity="1" fill-rule="nonzero"/></g></g></g></g></g></g><g transform="matrix(1, 0, 0, 1, 0, 207)"><g clip-path="url(#34d4960e65)"><g fill="#ffffff" fill-opacity="1"><g transform="translate(0.00707064, 74.615479)"><g><path d="M 10.265625 0 C 8.878906 0 7.75 -0.429688 6.875 -1.296875 C 6.007812 -2.171875 5.578125 -3.253906 5.578125 -4.546875 L 5.578125 -47.5625 C 5.578125 -48.851562 6.007812 -49.929688 6.875 -50.796875 C 7.75 -51.671875 8.832031 -52.109375 10.125 -52.109375 L 34.3125 -52.109375 C 35.601562 -52.109375 36.679688 -51.695312 37.546875 -50.875 C 38.421875 -50.0625 38.859375 -49.007812 38.859375 -47.71875 C 38.859375 -46.625 38.421875 -45.65625 37.546875 -44.8125 C 36.679688 -43.96875 35.601562 -43.546875 34.3125 -43.546875 L 14.21875 -43.546875 L 14.890625 -44.4375 L 14.890625 -29.484375 L 14.359375 -30.4375 L 30.96875 -30.4375 C 32.257812 -30.4375 33.335938 -30.023438 34.203125 -29.203125 C 35.066406 -28.390625 35.5 -27.335938 35.5 -26.046875 C 35.5 -24.960938 35.066406 -24 34.203125 -23.15625 C 33.335938 -22.3125 32.257812 -21.890625 30.96875 -21.890625 L 14.21875 -21.890625 L 14.890625 -22.546875 L 14.890625 -4.546875 C 14.890625 -3.253906 14.429688 -2.171875 13.515625 -1.296875 C 12.597656 -0.429688 11.515625 0 10.265625 0 Z M 10.265625 0 "/></g></g></g><g fill="#ffffff" fill-opacity="1"><g transform="translate(41.835424, 74.615479)"><g><path d="M 14.515625 -4.546875 C 14.515625 -3.253906 14.078125 -2.171875 13.203125 -1.296875 C 12.335938 -0.429688 11.257812 0 9.96875 0 C 8.726562 0 7.6875 -0.429688 6.84375 -1.296875 C 6 -2.171875 5.578125 -3.253906 5.578125 -4.546875 L 5.578125 -50.546875 C 5.578125 -51.835938 6.007812 -52.914062 6.875 -53.78125 C 7.75 -54.644531 8.832031 -55.078125 10.125 -55.078125 C 11.414062 -55.078125 12.46875 -54.644531 13.28125 -53.78125 C 14.101562 -52.914062 14.515625 -51.835938 14.515625 -50.546875 Z M 14.515625 -4.546875 "/></g></g></g><g fill="#ffffff" fill-opacity="1"><g transform="translate(61.558729, 74.615479)"><g><path d="M 34.390625 -39.828125 C 35.679688 -39.828125 36.75 -39.390625 37.59375 -38.515625 C 38.4375 -37.648438 38.859375 -36.570312 38.859375 -35.28125 L 38.859375 -16.375 C 38.859375 -11.113281 37.394531 -6.941406 34.46875 -3.859375 C 31.539062 -0.785156 27.320312 0.75 21.8125 0.75 C 16.300781 0.75 12.09375 -0.785156 9.1875 -3.859375 C 6.289062 -6.941406 4.84375 -11.113281 4.84375 -16.375 L 4.84375 -35.28125 C 4.84375 -36.570312 5.265625 -37.648438 6.109375 -38.515625 C 6.953125 -39.390625 8.019531 -39.828125 9.3125 -39.828125 C 10.59375 -39.828125 11.65625 -39.390625 12.5 -38.515625 C 13.34375 -37.648438 13.765625 -36.570312 13.765625 -35.28125 L 13.765625 -16.375 C 13.765625 -13.34375 14.4375 -11.09375 15.78125 -9.625 C 17.125 -8.164062 19.132812 -7.4375 21.8125 -7.4375 C 24.539062 -7.4375 26.570312 -8.164062 27.90625 -9.625 C 29.25 -11.09375 29.921875 -13.34375 29.921875 -16.375 L 29.921875 -35.28125 C 29.921875 -36.570312 30.34375 -37.648438 31.1875 -38.515625 C 32.03125 -39.390625 33.097656 -39.828125 34.390625 -39.828125 Z M 34.390625 -39.828125 "/></g></g></g><g fill="#ffffff" fill-opacity="1"><g transform="translate(105.247775, 74.615479)"><g><path d="M 5.65625 -39.828125 C 7.09375 -39.828125 8.3125 -39.207031 9.3125 -37.96875 L 34.171875 -7.078125 C 34.816406 -6.273438 35.140625 -5.378906 35.140625 -4.390625 C 35.140625 -3.148438 34.664062 -2.082031 33.71875 -1.1875 C 32.78125 -0.289062 31.738281 0.15625 30.59375 0.15625 C 29.15625 0.15625 27.941406 -0.488281 26.953125 -1.78125 L 2.078125 -32.671875 C 1.429688 -33.472656 1.109375 -34.367188 1.109375 -35.359375 C 1.109375 -36.648438 1.566406 -37.71875 2.484375 -38.5625 C 3.410156 -39.40625 4.46875 -39.828125 5.65625 -39.828125 Z M 5.734375 0.078125 C 4.742188 0.078125 3.765625 -0.304688 2.796875 -1.078125 C 1.828125 -1.847656 1.34375 -2.78125 1.34375 -3.875 C 1.34375 -4.863281 1.710938 -5.804688 2.453125 -6.703125 L 13.84375 -20.625 L 18.3125 -13.171875 L 9.3125 -1.78125 C 8.363281 -0.539062 7.171875 0.078125 5.734375 0.078125 Z M 30.515625 -39.828125 C 31.710938 -39.828125 32.71875 -39.414062 33.53125 -38.59375 C 34.351562 -37.78125 34.765625 -36.847656 34.765625 -35.796875 C 34.765625 -35.304688 34.6875 -34.8125 34.53125 -34.3125 C 34.382812 -33.820312 34.113281 -33.351562 33.71875 -32.90625 L 22.484375 -19.203125 L 17.796875 -25.6875 L 26.953125 -37.8125 C 27.941406 -39.15625 29.128906 -39.828125 30.515625 -39.828125 Z M 30.515625 -39.828125 "/></g></g></g><g fill="#ffffff" fill-opacity="1"><g transform="translate(141.499436, 74.615479)"><g><path d="M 9.234375 -52.109375 C 9.578125 -52.109375 9.9375 -52.03125 10.3125 -51.875 C 10.6875 -51.726562 10.992188 -51.484375 11.234375 -51.140625 L 31.78125 -20.328125 L 29.78125 -20.390625 L 50.390625 -51.140625 C 50.941406 -51.878906 51.613281 -52.203125 52.40625 -52.109375 C 53 -52.109375 53.503906 -51.894531 53.921875 -51.46875 C 54.347656 -51.050781 54.5625 -50.519531 54.5625 -49.875 L 54.5625 -2.234375 C 54.5625 -1.640625 54.335938 -1.117188 53.890625 -0.671875 C 53.441406 -0.222656 52.894531 0 52.25 0 C 51.5625 0 50.992188 -0.222656 50.546875 -0.671875 C 50.097656 -1.117188 49.875 -1.640625 49.875 -2.234375 L 49.875 -45.328125 L 51.21875 -45.1875 L 32.375 -16.671875 C 32.226562 -16.378906 32.003906 -16.144531 31.703125 -15.96875 C 31.410156 -15.789062 31.066406 -15.726562 30.671875 -15.78125 C 30.316406 -15.726562 29.976562 -15.789062 29.65625 -15.96875 C 29.332031 -16.144531 29.070312 -16.378906 28.875 -16.671875 L 9.96875 -45.484375 L 11.390625 -46.453125 L 11.390625 -2.234375 C 11.390625 -1.640625 11.175781 -1.117188 10.75 -0.671875 C 10.332031 -0.222656 9.800781 0 9.15625 0 C 8.507812 0 7.988281 -0.222656 7.59375 -0.671875 C 7.195312 -1.117188 7 -1.640625 7 -2.234375 L 7 -49.875 C 7 -50.46875 7.207031 -50.988281 7.625 -51.4375 C 8.050781 -51.882812 8.585938 -52.109375 9.234375 -52.109375 Z M 9.234375 -52.109375 "/></g></g></g><g fill="#ffffff" fill-opacity="1"><g transform="translate(203.051122, 74.615479)"><g><path d="M 41.3125 -19.0625 C 41.3125 -15.289062 40.492188 -11.898438 38.859375 -8.890625 C 37.222656 -5.890625 34.988281 -3.53125 32.15625 -1.8125 C 29.332031 -0.101562 26.109375 0.75 22.484375 0.75 C 18.953125 0.75 15.757812 -0.101562 12.90625 -1.8125 C 10.0625 -3.53125 7.804688 -5.890625 6.140625 -8.890625 C 4.472656 -11.898438 3.640625 -15.289062 3.640625 -19.0625 C 3.640625 -22.875 4.472656 -26.269531 6.140625 -29.25 C 7.804688 -32.226562 10.0625 -34.585938 12.90625 -36.328125 C 15.757812 -38.066406 18.953125 -38.9375 22.484375 -38.9375 C 26.109375 -38.9375 29.332031 -38.066406 32.15625 -36.328125 C 34.988281 -34.585938 37.222656 -32.226562 38.859375 -29.25 C 40.492188 -26.269531 41.3125 -22.875 41.3125 -19.0625 Z M 36.84375 -19.0625 C 36.84375 -22.082031 36.222656 -24.769531 34.984375 -27.125 C 33.742188 -29.488281 32.046875 -31.351562 29.890625 -32.71875 C 27.734375 -34.082031 25.265625 -34.765625 22.484375 -34.765625 C 19.796875 -34.765625 17.359375 -34.082031 15.171875 -32.71875 C 12.992188 -31.351562 11.269531 -29.488281 10 -27.125 C 8.738281 -24.769531 8.109375 -22.082031 8.109375 -19.0625 C 8.109375 -16.03125 8.738281 -13.347656 10 -11.015625 C 11.269531 -8.679688 12.992188 -6.832031 15.171875 -5.46875 C 17.359375 -4.101562 19.796875 -3.421875 22.484375 -3.421875 C 25.265625 -3.421875 27.734375 -4.101562 29.890625 -5.46875 C 32.046875 -6.832031 33.742188 -8.679688 34.984375 -11.015625 C 36.222656 -13.347656 36.84375 -16.03125 36.84375 -19.0625 Z M 36.84375 -19.0625 "/></g></g></g><g fill="#ffffff" fill-opacity="1"><g transform="translate(248.005435, 74.615479)"><g><path d="M 23.8125 -38.9375 C 27.09375 -38.9375 29.710938 -38.273438 31.671875 -36.953125 C 33.628906 -35.640625 35.039062 -33.851562 35.90625 -31.59375 C 36.78125 -29.34375 37.21875 -26.851562 37.21875 -24.125 L 37.21875 -2.234375 C 37.21875 -1.640625 36.992188 -1.117188 36.546875 -0.671875 C 36.097656 -0.222656 35.578125 0 34.984375 0 C 34.285156 0 33.738281 -0.222656 33.34375 -0.671875 C 32.945312 -1.117188 32.75 -1.640625 32.75 -2.234375 L 32.75 -23.890625 C 32.75 -25.878906 32.425781 -27.691406 31.78125 -29.328125 C 31.132812 -30.960938 30.078125 -32.273438 28.609375 -33.265625 C 27.148438 -34.265625 25.234375 -34.765625 22.859375 -34.765625 C 20.722656 -34.765625 18.695312 -34.265625 16.78125 -33.265625 C 14.875 -32.273438 13.320312 -30.960938 12.125 -29.328125 C 10.9375 -27.691406 10.34375 -25.878906 10.34375 -23.890625 L 10.34375 -2.234375 C 10.34375 -1.640625 10.117188 -1.117188 9.671875 -0.671875 C 9.222656 -0.222656 8.703125 0 8.109375 0 C 7.421875 0 6.875 -0.222656 6.46875 -0.671875 C 6.070312 -1.117188 5.875 -1.640625 5.875 -2.234375 L 5.875 -35.578125 C 5.875 -36.171875 6.082031 -36.691406 6.5 -37.140625 C 6.925781 -37.585938 7.460938 -37.8125 8.109375 -37.8125 C 8.753906 -37.8125 9.285156 -37.585938 9.703125 -37.140625 C 10.128906 -36.691406 10.34375 -36.171875 10.34375 -35.578125 L 10.34375 -29.328125 L 8.640625 -26.65625 C 8.734375 -28.238281 9.238281 -29.757812 10.15625 -31.21875 C 11.070312 -32.6875 12.25 -34.003906 13.6875 -35.171875 C 15.132812 -36.335938 16.738281 -37.253906 18.5 -37.921875 C 20.257812 -38.597656 22.03125 -38.9375 23.8125 -38.9375 Z M 23.8125 -38.9375 "/></g></g></g><g fill="#ffffff" fill-opacity="1"><g transform="translate(291.024633, 74.615479)"><g><path d="M 23.078125 0.75 C 19.253906 0.75 15.878906 -0.0664062 12.953125 -1.703125 C 10.023438 -3.347656 7.738281 -5.632812 6.09375 -8.5625 C 4.457031 -11.488281 3.640625 -14.910156 3.640625 -18.828125 C 3.640625 -23.046875 4.472656 -26.644531 6.140625 -29.625 C 7.804688 -32.601562 9.960938 -34.898438 12.609375 -36.515625 C 15.265625 -38.128906 18.082031 -38.9375 21.0625 -38.9375 C 23.25 -38.9375 25.367188 -38.550781 27.421875 -37.78125 C 29.484375 -37.007812 31.320312 -35.863281 32.9375 -34.34375 C 34.550781 -32.832031 35.84375 -30.984375 36.8125 -28.796875 C 37.78125 -26.617188 38.3125 -24.09375 38.40625 -21.21875 C 38.351562 -20.625 38.101562 -20.113281 37.65625 -19.6875 C 37.21875 -19.269531 36.703125 -19.0625 36.109375 -19.0625 L 6.25 -19.0625 L 5.359375 -23.078125 L 34.6875 -23.078125 L 33.71875 -22.1875 L 33.71875 -23.671875 C 33.519531 -26.003906 32.773438 -27.988281 31.484375 -29.625 C 30.191406 -31.257812 28.628906 -32.5 26.796875 -33.34375 C 24.960938 -34.1875 23.050781 -34.609375 21.0625 -34.609375 C 19.570312 -34.609375 18.046875 -34.3125 16.484375 -33.71875 C 14.921875 -33.125 13.503906 -32.191406 12.234375 -30.921875 C 10.972656 -29.660156 9.945312 -28.050781 9.15625 -26.09375 C 8.363281 -24.132812 7.96875 -21.8125 7.96875 -19.125 C 7.96875 -16.195312 8.5625 -13.539062 9.75 -11.15625 C 10.9375 -8.78125 12.660156 -6.894531 14.921875 -5.5 C 17.179688 -4.113281 19.875 -3.421875 23 -3.421875 C 24.738281 -3.421875 26.300781 -3.664062 27.6875 -4.15625 C 29.082031 -4.65625 30.300781 -5.316406 31.34375 -6.140625 C 32.382812 -6.960938 33.25 -7.816406 33.9375 -8.703125 C 34.488281 -9.148438 35.035156 -9.375 35.578125 -9.375 C 36.078125 -9.375 36.507812 -9.175781 36.875 -8.78125 C 37.25 -8.382812 37.4375 -7.9375 37.4375 -7.4375 C 37.4375 -6.84375 37.191406 -6.320312 36.703125 -5.875 C 35.210938 -4.09375 33.273438 -2.539062 30.890625 -1.21875 C 28.503906 0.09375 25.898438 0.75 23.078125 0.75 Z M 23.078125 0.75 "/></g></g></g><g fill="#ffffff" fill-opacity="1"><g transform="translate(332.704101, 74.615479)"><g><path d="M 34.234375 -38.703125 C 34.878906 -38.703125 35.410156 -38.476562 35.828125 -38.03125 C 36.253906 -37.59375 36.46875 -37.070312 36.46875 -36.46875 L 36.46875 -3.640625 C 36.46875 0.367188 35.671875 3.75 34.078125 6.5 C 32.492188 9.257812 30.363281 11.347656 27.6875 12.765625 C 25.007812 14.179688 21.957031 14.890625 18.53125 14.890625 C 16.394531 14.890625 14.421875 14.648438 12.609375 14.171875 C 10.804688 13.703125 9.332031 13.097656 8.1875 12.359375 C 7.59375 12.003906 7.144531 11.578125 6.84375 11.078125 C 6.550781 10.585938 6.53125 10.070312 6.78125 9.53125 C 7.019531 8.832031 7.398438 8.367188 7.921875 8.140625 C 8.441406 7.921875 8.976562 7.9375 9.53125 8.1875 C 10.375 8.632812 11.585938 9.179688 13.171875 9.828125 C 14.765625 10.472656 16.578125 10.796875 18.609375 10.796875 C 21.335938 10.796875 23.707031 10.222656 25.71875 9.078125 C 27.726562 7.941406 29.28125 6.289062 30.375 4.125 C 31.46875 1.96875 32.015625 -0.597656 32.015625 -3.578125 L 32.015625 -8.9375 L 32.53125 -7.140625 C 31.78125 -5.609375 30.722656 -4.242188 29.359375 -3.046875 C 27.992188 -1.859375 26.429688 -0.925781 24.671875 -0.25 C 22.910156 0.414062 21.039062 0.75 19.0625 0.75 C 16.082031 0.75 13.609375 0.140625 11.640625 -1.078125 C 9.679688 -2.296875 8.226562 -3.972656 7.28125 -6.109375 C 6.34375 -8.242188 5.875 -10.75 5.875 -13.625 L 5.875 -36.46875 C 5.875 -37.070312 6.070312 -37.59375 6.46875 -38.03125 C 6.875 -38.476562 7.421875 -38.703125 8.109375 -38.703125 C 8.753906 -38.703125 9.285156 -38.476562 9.703125 -38.03125 C 10.128906 -37.59375 10.34375 -37.070312 10.34375 -36.46875 L 10.34375 -14.296875 C 10.34375 -10.816406 11.097656 -8.132812 12.609375 -6.25 C 14.128906 -4.363281 16.601562 -3.421875 20.03125 -3.421875 C 22.15625 -3.421875 24.109375 -3.925781 25.890625 -4.9375 C 27.679688 -5.957031 29.148438 -7.300781 30.296875 -8.96875 C 31.441406 -10.632812 32.015625 -12.410156 32.015625 -14.296875 L 32.015625 -36.46875 C 32.015625 -37.070312 32.222656 -37.59375 32.640625 -38.03125 C 33.066406 -38.476562 33.597656 -38.703125 34.234375 -38.703125 Z M 34.234375 -38.703125 "/></g></g></g></g></g><g fill="#ffffff" fill-opacity="1"><g transform="translate(6.017201, 304.967618)"><g><path d="M 4.734375 0.171875 C 3.617188 0.171875 2.71875 -0.160156 2.03125 -0.828125 C 1.34375 -1.503906 1 -2.445312 1 -3.65625 L 1 -4.328125 L 2.21875 -4.328125 L 2.21875 -3.65625 C 2.21875 -2.78125 2.445312 -2.109375 2.90625 -1.640625 C 3.363281 -1.171875 3.972656 -0.9375 4.734375 -0.9375 C 5.503906 -0.9375 6.113281 -1.171875 6.5625 -1.640625 C 7.019531 -2.109375 7.25 -2.78125 7.25 -3.65625 L 7.25 -13.09375 L 8.484375 -13.09375 L 8.484375 -3.65625 C 8.484375 -2.445312 8.140625 -1.503906 7.453125 -0.828125 C 6.765625 -0.160156 5.859375 0.171875 4.734375 0.171875 Z M 4.734375 0.171875 "/></g></g></g><g fill="#ffffff" fill-opacity="1"><g transform="translate(17.314327, 304.967618)"><g><path d="M 5.34375 0.203125 C 4.4375 0.203125 3.648438 -0.0078125 2.984375 -0.4375 C 2.316406 -0.863281 1.800781 -1.453125 1.4375 -2.203125 C 1.082031 -2.953125 0.90625 -3.816406 0.90625 -4.796875 C 0.90625 -5.785156 1.082031 -6.65625 1.4375 -7.40625 C 1.800781 -8.164062 2.304688 -8.757812 2.953125 -9.1875 C 3.597656 -9.625 4.335938 -9.84375 5.171875 -9.84375 C 5.734375 -9.84375 6.265625 -9.738281 6.765625 -9.53125 C 7.273438 -9.332031 7.722656 -9.03125 8.109375 -8.625 C 8.492188 -8.21875 8.796875 -7.710938 9.015625 -7.109375 C 9.242188 -6.503906 9.359375 -5.796875 9.359375 -4.984375 L 9.359375 -4.515625 L 1.65625 -4.515625 L 1.65625 -5.53125 L 8.71875 -5.53125 L 8.1875 -5.15625 C 8.1875 -5.851562 8.0625 -6.472656 7.8125 -7.015625 C 7.570312 -7.566406 7.226562 -8 6.78125 -8.3125 C 6.332031 -8.632812 5.796875 -8.796875 5.171875 -8.796875 C 4.554688 -8.796875 4.015625 -8.632812 3.546875 -8.3125 C 3.085938 -7.988281 2.726562 -7.554688 2.46875 -7.015625 C 2.21875 -6.484375 2.09375 -5.890625 2.09375 -5.234375 L 2.09375 -4.65625 C 2.09375 -3.894531 2.222656 -3.226562 2.484375 -2.65625 C 2.753906 -2.09375 3.128906 -1.648438 3.609375 -1.328125 C 4.097656 -1.015625 4.675781 -0.859375 5.34375 -0.859375 C 5.800781 -0.859375 6.207031 -0.929688 6.5625 -1.078125 C 6.925781 -1.222656 7.226562 -1.421875 7.46875 -1.671875 C 7.707031 -1.929688 7.882812 -2.21875 8 -2.53125 L 9.140625 -2.25 C 8.992188 -1.800781 8.75 -1.390625 8.40625 -1.015625 C 8.0625 -0.640625 7.628906 -0.34375 7.109375 -0.125 C 6.585938 0.09375 6 0.203125 5.34375 0.203125 Z M 5.34375 0.203125 "/></g></g></g><g fill="#ffffff" fill-opacity="1"><g transform="translate(28.796024, 304.967618)"><g><path d="M 1.421875 0 L 1.421875 -9.703125 L 2.609375 -9.703125 L 2.609375 0 Z M 2.015625 -11.5625 C 1.785156 -11.5625 1.582031 -11.644531 1.40625 -11.8125 C 1.238281 -11.976562 1.15625 -12.175781 1.15625 -12.40625 C 1.15625 -12.632812 1.238281 -12.828125 1.40625 -12.984375 C 1.582031 -13.148438 1.785156 -13.234375 2.015625 -13.234375 C 2.253906 -13.234375 2.457031 -13.148438 2.625 -12.984375 C 2.789062 -12.828125 2.875 -12.632812 2.875 -12.40625 C 2.875 -12.175781 2.789062 -11.976562 2.625 -11.8125 C 2.457031 -11.644531 2.253906 -11.5625 2.015625 -11.5625 Z M 2.015625 -11.5625 "/></g></g></g><g fill="#ffffff" fill-opacity="1"><g transform="translate(34.107799, 304.967618)"><g><path d="M 4.8125 -9.703125 L 4.8125 -8.671875 L 0.125 -8.671875 L 0.125 -9.703125 Z M 1.625 -12.078125 L 2.796875 -12.078125 L 2.796875 -2.265625 C 2.796875 -1.804688 2.898438 -1.46875 3.109375 -1.25 C 3.316406 -1.03125 3.640625 -0.9375 4.078125 -0.96875 C 4.171875 -0.976562 4.28125 -0.988281 4.40625 -1 C 4.53125 -1.019531 4.644531 -1.039062 4.75 -1.0625 L 4.953125 -0.03125 C 4.816406 0 4.671875 0.0234375 4.515625 0.046875 C 4.359375 0.0664062 4.203125 0.078125 4.046875 0.078125 C 3.285156 0.117188 2.691406 -0.0625 2.265625 -0.46875 C 1.835938 -0.875 1.625 -1.445312 1.625 -2.1875 Z M 1.625 -12.078125 "/></g></g></g><g fill="#ffffff" fill-opacity="1"><g transform="translate(40.526995, 304.967618)"><g><path d="M 5.21875 0.203125 C 4.375 0.203125 3.625 -0.0078125 2.96875 -0.4375 C 2.320312 -0.863281 1.816406 -1.453125 1.453125 -2.203125 C 1.085938 -2.960938 0.90625 -3.832031 0.90625 -4.8125 C 0.90625 -5.800781 1.085938 -6.671875 1.453125 -7.421875 C 1.816406 -8.179688 2.320312 -8.773438 2.96875 -9.203125 C 3.625 -9.628906 4.375 -9.84375 5.21875 -9.84375 C 6.070312 -9.84375 6.820312 -9.628906 7.46875 -9.203125 C 8.125 -8.773438 8.632812 -8.179688 9 -7.421875 C 9.363281 -6.671875 9.546875 -5.800781 9.546875 -4.8125 C 9.546875 -3.832031 9.363281 -2.960938 9 -2.203125 C 8.632812 -1.453125 8.125 -0.863281 7.46875 -0.4375 C 6.820312 -0.0078125 6.070312 0.203125 5.21875 0.203125 Z M 5.21875 -0.859375 C 5.882812 -0.859375 6.453125 -1.035156 6.921875 -1.390625 C 7.390625 -1.742188 7.742188 -2.21875 7.984375 -2.8125 C 8.234375 -3.414062 8.359375 -4.082031 8.359375 -4.8125 C 8.359375 -5.550781 8.234375 -6.21875 7.984375 -6.8125 C 7.742188 -7.414062 7.390625 -7.894531 6.921875 -8.25 C 6.453125 -8.601562 5.882812 -8.78125 5.21875 -8.78125 C 4.5625 -8.78125 4 -8.597656 3.53125 -8.234375 C 3.070312 -7.878906 2.71875 -7.40625 2.46875 -6.8125 C 2.21875 -6.21875 2.09375 -5.550781 2.09375 -4.8125 C 2.09375 -4.070312 2.21875 -3.40625 2.46875 -2.8125 C 2.71875 -2.21875 3.070312 -1.742188 3.53125 -1.390625 C 4 -1.035156 4.5625 -0.859375 5.21875 -0.859375 Z M 5.21875 -0.859375 "/></g></g></g><g fill="#ffffff" fill-opacity="1"><g transform="translate(52.237207, 304.967618)"><g/></g></g><g fill="#ffffff" fill-opacity="1"><g transform="translate(58.392732, 304.967618)"><g><path d="M 4.546875 0.203125 C 3.890625 0.203125 3.3125 0.101562 2.8125 -0.09375 C 2.3125 -0.300781 1.898438 -0.597656 1.578125 -0.984375 C 1.253906 -1.378906 1.046875 -1.863281 0.953125 -2.4375 L 2.078125 -2.640625 C 2.203125 -2.046875 2.472656 -1.597656 2.890625 -1.296875 C 3.316406 -0.992188 3.863281 -0.84375 4.53125 -0.84375 C 5.269531 -0.84375 5.859375 -1.007812 6.296875 -1.34375 C 6.742188 -1.675781 6.96875 -2.085938 6.96875 -2.578125 C 6.96875 -2.984375 6.832031 -3.3125 6.5625 -3.5625 C 6.289062 -3.820312 5.890625 -4.007812 5.359375 -4.125 L 3.78125 -4.515625 C 2.9375 -4.710938 2.300781 -5.023438 1.875 -5.453125 C 1.457031 -5.890625 1.25 -6.441406 1.25 -7.109375 C 1.25 -7.640625 1.394531 -8.113281 1.6875 -8.53125 C 1.976562 -8.945312 2.378906 -9.269531 2.890625 -9.5 C 3.410156 -9.726562 4 -9.84375 4.65625 -9.84375 C 5.28125 -9.84375 5.820312 -9.742188 6.28125 -9.546875 C 6.738281 -9.347656 7.109375 -9.0625 7.390625 -8.6875 C 7.679688 -8.320312 7.882812 -7.890625 8 -7.390625 L 6.921875 -7.171875 C 6.785156 -7.648438 6.535156 -8.046875 6.171875 -8.359375 C 5.816406 -8.671875 5.3125 -8.828125 4.65625 -8.828125 C 4.007812 -8.828125 3.476562 -8.671875 3.0625 -8.359375 C 2.644531 -8.046875 2.4375 -7.640625 2.4375 -7.140625 C 2.4375 -6.734375 2.578125 -6.398438 2.859375 -6.140625 C 3.140625 -5.878906 3.578125 -5.679688 4.171875 -5.546875 L 5.6875 -5.1875 C 6.519531 -4.988281 7.140625 -4.675781 7.546875 -4.25 C 7.960938 -3.832031 8.171875 -3.296875 8.171875 -2.640625 C 8.171875 -2.078125 8.015625 -1.582031 7.703125 -1.15625 C 7.398438 -0.726562 6.972656 -0.394531 6.421875 -0.15625 C 5.878906 0.0820312 5.253906 0.203125 4.546875 0.203125 Z M 4.546875 0.203125 "/></g></g></g><g fill="#ffffff" fill-opacity="1"><g transform="translate(68.740639, 304.967618)"><g><path d="M 1.421875 0 L 1.421875 -9.703125 L 2.609375 -9.703125 L 2.609375 0 Z M 2.015625 -11.5625 C 1.785156 -11.5625 1.582031 -11.644531 1.40625 -11.8125 C 1.238281 -11.976562 1.15625 -12.175781 1.15625 -12.40625 C 1.15625 -12.632812 1.238281 -12.828125 1.40625 -12.984375 C 1.582031 -13.148438 1.785156 -13.234375 2.015625 -13.234375 C 2.253906 -13.234375 2.457031 -13.148438 2.625 -12.984375 C 2.789062 -12.828125 2.875 -12.632812 2.875 -12.40625 C 2.875 -12.175781 2.789062 -11.976562 2.625 -11.8125 C 2.457031 -11.644531 2.253906 -11.5625 2.015625 -11.5625 Z M 2.015625 -11.5625 "/></g></g></g><g fill="#ffffff" fill-opacity="1"><g transform="translate(74.026047, 304.967618)"><g><path d="M 1.421875 0 L 1.421875 -9.703125 L 2.578125 -9.703125 L 2.578125 -7.53125 L 2.4375 -7.53125 C 2.570312 -8.0625 2.789062 -8.5 3.09375 -8.84375 C 3.394531 -9.1875 3.742188 -9.441406 4.140625 -9.609375 C 4.546875 -9.785156 4.957031 -9.875 5.375 -9.875 C 6.09375 -9.875 6.691406 -9.648438 7.171875 -9.203125 C 7.648438 -8.765625 7.953125 -8.1875 8.078125 -7.46875 L 7.875 -7.46875 C 7.988281 -7.957031 8.195312 -8.378906 8.5 -8.734375 C 8.800781 -9.097656 9.171875 -9.378906 9.609375 -9.578125 C 10.046875 -9.773438 10.523438 -9.875 11.046875 -9.875 C 11.628906 -9.875 12.148438 -9.742188 12.609375 -9.484375 C 13.078125 -9.234375 13.441406 -8.859375 13.703125 -8.359375 C 13.972656 -7.859375 14.109375 -7.238281 14.109375 -6.5 L 14.109375 0 L 12.921875 0 L 12.921875 -6.46875 C 12.921875 -7.257812 12.707031 -7.84375 12.28125 -8.21875 C 11.863281 -8.59375 11.347656 -8.78125 10.734375 -8.78125 C 10.265625 -8.78125 9.847656 -8.679688 9.484375 -8.484375 C 9.128906 -8.285156 8.847656 -8.003906 8.640625 -7.640625 C 8.441406 -7.273438 8.34375 -6.847656 8.34375 -6.359375 L 8.34375 0 L 7.171875 0 L 7.171875 -6.578125 C 7.171875 -7.265625 6.972656 -7.800781 6.578125 -8.1875 C 6.179688 -8.582031 5.671875 -8.78125 5.046875 -8.78125 C 4.609375 -8.78125 4.203125 -8.675781 3.828125 -8.46875 C 3.453125 -8.269531 3.15625 -7.976562 2.9375 -7.59375 C 2.71875 -7.207031 2.609375 -6.742188 2.609375 -6.203125 L 2.609375 0 Z M 1.421875 0 "/></g></g></g><g fill="#ffffff" fill-opacity="1"><g transform="translate(90.816336, 304.967618)"><g><path d="M 1.421875 3.671875 L 1.421875 -9.703125 L 2.5625 -9.703125 L 2.5625 -7.84375 L 2.671875 -7.84375 C 2.816406 -8.164062 3.015625 -8.476562 3.265625 -8.78125 C 3.523438 -9.09375 3.851562 -9.347656 4.25 -9.546875 C 4.65625 -9.742188 5.144531 -9.84375 5.71875 -9.84375 C 6.519531 -9.84375 7.222656 -9.632812 7.828125 -9.21875 C 8.429688 -8.800781 8.898438 -8.210938 9.234375 -7.453125 C 9.578125 -6.703125 9.75 -5.828125 9.75 -4.828125 C 9.75 -3.828125 9.582031 -2.945312 9.25 -2.1875 C 8.914062 -1.4375 8.441406 -0.847656 7.828125 -0.421875 C 7.222656 -0.00390625 6.519531 0.203125 5.71875 0.203125 C 5.15625 0.203125 4.671875 0.101562 4.265625 -0.09375 C 3.867188 -0.300781 3.539062 -0.554688 3.28125 -0.859375 C 3.03125 -1.171875 2.832031 -1.488281 2.6875 -1.8125 L 2.609375 -1.8125 L 2.609375 3.671875 Z M 5.5625 -0.875 C 6.195312 -0.875 6.734375 -1.046875 7.171875 -1.390625 C 7.617188 -1.734375 7.960938 -2.203125 8.203125 -2.796875 C 8.441406 -3.398438 8.5625 -4.082031 8.5625 -4.84375 C 8.5625 -5.601562 8.441406 -6.28125 8.203125 -6.875 C 7.972656 -7.46875 7.632812 -7.929688 7.1875 -8.265625 C 6.738281 -8.597656 6.195312 -8.765625 5.5625 -8.765625 C 4.9375 -8.765625 4.398438 -8.597656 3.953125 -8.265625 C 3.503906 -7.941406 3.160156 -7.484375 2.921875 -6.890625 C 2.691406 -6.296875 2.578125 -5.613281 2.578125 -4.84375 C 2.578125 -4.0625 2.691406 -3.367188 2.921875 -2.765625 C 3.160156 -2.171875 3.503906 -1.707031 3.953125 -1.375 C 4.398438 -1.039062 4.9375 -0.875 5.5625 -0.875 Z M 5.5625 -0.875 "/></g></g></g><g fill="#ffffff" fill-opacity="1"><g transform="translate(102.737486, 304.967618)"><g><path d="M 2.609375 -13.09375 L 2.609375 0 L 1.421875 0 L 1.421875 -13.09375 Z M 2.609375 -13.09375 "/></g></g></g><g fill="#ffffff" fill-opacity="1"><g transform="translate(108.022893, 304.967618)"><g><path d="M 5.34375 0.203125 C 4.4375 0.203125 3.648438 -0.0078125 2.984375 -0.4375 C 2.316406 -0.863281 1.800781 -1.453125 1.4375 -2.203125 C 1.082031 -2.953125 0.90625 -3.816406 0.90625 -4.796875 C 0.90625 -5.785156 1.082031 -6.65625 1.4375 -7.40625 C 1.800781 -8.164062 2.304688 -8.757812 2.953125 -9.1875 C 3.597656 -9.625 4.335938 -9.84375 5.171875 -9.84375 C 5.734375 -9.84375 6.265625 -9.738281 6.765625 -9.53125 C 7.273438 -9.332031 7.722656 -9.03125 8.109375 -8.625 C 8.492188 -8.21875 8.796875 -7.710938 9.015625 -7.109375 C 9.242188 -6.503906 9.359375 -5.796875 9.359375 -4.984375 L 9.359375 -4.515625 L 1.65625 -4.515625 L 1.65625 -5.53125 L 8.71875 -5.53125 L 8.1875 -5.15625 C 8.1875 -5.851562 8.0625 -6.472656 7.8125 -7.015625 C 7.570312 -7.566406 7.226562 -8 6.78125 -8.3125 C 6.332031 -8.632812 5.796875 -8.796875 5.171875 -8.796875 C 4.554688 -8.796875 4.015625 -8.632812 3.546875 -8.3125 C 3.085938 -7.988281 2.726562 -7.554688 2.46875 -7.015625 C 2.21875 -6.484375 2.09375 -5.890625 2.09375 -5.234375 L 2.09375 -4.65625 C 2.09375 -3.894531 2.222656 -3.226562 2.484375 -2.65625 C 2.753906 -2.09375 3.128906 -1.648438 3.609375 -1.328125 C 4.097656 -1.015625 4.675781 -0.859375 5.34375 -0.859375 C 5.800781 -0.859375 6.207031 -0.929688 6.5625 -1.078125 C 6.925781 -1.222656 7.226562 -1.421875 7.46875 -1.671875 C 7.707031 -1.929688 7.882812 -2.21875 8 -2.53125 L 9.140625 -2.25 C 8.992188 -1.800781 8.75 -1.390625 8.40625 -1.015625 C 8.0625 -0.640625 7.628906 -0.34375 7.109375 -0.125 C 6.585938 0.09375 6 0.203125 5.34375 0.203125 Z M 5.34375 0.203125 "/></g></g></g><g fill="#ffffff" fill-opacity="1"><g transform="translate(119.50459, 304.967618)"><g><path d="M 4.546875 0.203125 C 3.890625 0.203125 3.3125 0.101562 2.8125 -0.09375 C 2.3125 -0.300781 1.898438 -0.597656 1.578125 -0.984375 C 1.253906 -1.378906 1.046875 -1.863281 0.953125 -2.4375 L 2.078125 -2.640625 C 2.203125 -2.046875 2.472656 -1.597656 2.890625 -1.296875 C 3.316406 -0.992188 3.863281 -0.84375 4.53125 -0.84375 C 5.269531 -0.84375 5.859375 -1.007812 6.296875 -1.34375 C 6.742188 -1.675781 6.96875 -2.085938 6.96875 -2.578125 C 6.96875 -2.984375 6.832031 -3.3125 6.5625 -3.5625 C 6.289062 -3.820312 5.890625 -4.007812 5.359375 -4.125 L 3.78125 -4.515625 C 2.9375 -4.710938 2.300781 -5.023438 1.875 -5.453125 C 1.457031 -5.890625 1.25 -6.441406 1.25 -7.109375 C 1.25 -7.640625 1.394531 -8.113281 1.6875 -8.53125 C 1.976562 -8.945312 2.378906 -9.269531 2.890625 -9.5 C 3.410156 -9.726562 4 -9.84375 4.65625 -9.84375 C 5.28125 -9.84375 5.820312 -9.742188 6.28125 -9.546875 C 6.738281 -9.347656 7.109375 -9.0625 7.390625 -8.6875 C 7.679688 -8.320312 7.882812 -7.890625 8 -7.390625 L 6.921875 -7.171875 C 6.785156 -7.648438 6.535156 -8.046875 6.171875 -8.359375 C 5.816406 -8.671875 5.3125 -8.828125 4.65625 -8.828125 C 4.007812 -8.828125 3.476562 -8.671875 3.0625 -8.359375 C 2.644531 -8.046875 2.4375 -7.640625 2.4375 -7.140625 C 2.4375 -6.734375 2.578125 -6.398438 2.859375 -6.140625 C 3.140625 -5.878906 3.578125 -5.679688 4.171875 -5.546875 L 5.6875 -5.1875 C 6.519531 -4.988281 7.140625 -4.675781 7.546875 -4.25 C 7.960938 -3.832031 8.171875 -3.296875 8.171875 -2.640625 C 8.171875 -2.078125 8.015625 -1.582031 7.703125 -1.15625 C 7.398438 -0.726562 6.972656 -0.394531 6.421875 -0.15625 C 5.878906 0.0820312 5.253906 0.203125 4.546875 0.203125 Z M 4.546875 0.203125 "/></g></g></g><g fill="#ffffff" fill-opacity="1"><g transform="translate(129.852497, 304.967618)"><g/></g></g><g fill="#ffffff" fill-opacity="1"><g transform="translate(136.008022, 304.967618)"><g><path d="M 4.9375 0.203125 C 4.144531 0.203125 3.441406 -0.00390625 2.828125 -0.421875 C 2.222656 -0.847656 1.75 -1.4375 1.40625 -2.1875 C 1.070312 -2.945312 0.90625 -3.828125 0.90625 -4.828125 C 0.90625 -5.828125 1.070312 -6.703125 1.40625 -7.453125 C 1.75 -8.210938 2.222656 -8.800781 2.828125 -9.21875 C 3.441406 -9.632812 4.148438 -9.84375 4.953125 -9.84375 C 5.515625 -9.84375 5.992188 -9.742188 6.390625 -9.546875 C 6.796875 -9.347656 7.128906 -9.09375 7.390625 -8.78125 C 7.648438 -8.476562 7.847656 -8.164062 7.984375 -7.84375 L 8.0625 -7.84375 L 8.0625 -13.09375 L 9.234375 -13.09375 L 9.234375 0 L 8.09375 0 L 8.09375 -1.8125 L 7.984375 -1.8125 C 7.847656 -1.488281 7.644531 -1.171875 7.375 -0.859375 C 7.113281 -0.554688 6.785156 -0.300781 6.390625 -0.09375 C 5.992188 0.101562 5.507812 0.203125 4.9375 0.203125 Z M 5.09375 -0.875 C 5.71875 -0.875 6.253906 -1.039062 6.703125 -1.375 C 7.160156 -1.707031 7.503906 -2.171875 7.734375 -2.765625 C 7.972656 -3.367188 8.09375 -4.0625 8.09375 -4.84375 C 8.09375 -5.613281 7.972656 -6.296875 7.734375 -6.890625 C 7.503906 -7.484375 7.164062 -7.941406 6.71875 -8.265625 C 6.269531 -8.597656 5.726562 -8.765625 5.09375 -8.765625 C 4.46875 -8.765625 3.929688 -8.597656 3.484375 -8.265625 C 3.035156 -7.929688 2.691406 -7.46875 2.453125 -6.875 C 2.210938 -6.28125 2.09375 -5.601562 2.09375 -4.84375 C 2.09375 -4.082031 2.210938 -3.398438 2.453125 -2.796875 C 2.691406 -2.203125 3.035156 -1.734375 3.484375 -1.390625 C 3.929688 -1.046875 4.46875 -0.875 5.09375 -0.875 Z M 5.09375 -0.875 "/></g></g></g><g fill="#ffffff" fill-opacity="1"><g transform="translate(147.929171, 304.967618)"><g><path d="M 5.34375 0.203125 C 4.4375 0.203125 3.648438 -0.0078125 2.984375 -0.4375 C 2.316406 -0.863281 1.800781 -1.453125 1.4375 -2.203125 C 1.082031 -2.953125 0.90625 -3.816406 0.90625 -4.796875 C 0.90625 -5.785156 1.082031 -6.65625 1.4375 -7.40625 C 1.800781 -8.164062 2.304688 -8.757812 2.953125 -9.1875 C 3.597656 -9.625 4.335938 -9.84375 5.171875 -9.84375 C 5.734375 -9.84375 6.265625 -9.738281 6.765625 -9.53125 C 7.273438 -9.332031 7.722656 -9.03125 8.109375 -8.625 C 8.492188 -8.21875 8.796875 -7.710938 9.015625 -7.109375 C 9.242188 -6.503906 9.359375 -5.796875 9.359375 -4.984375 L 9.359375 -4.515625 L 1.65625 -4.515625 L 1.65625 -5.53125 L 8.71875 -5.53125 L 8.1875 -5.15625 C 8.1875 -5.851562 8.0625 -6.472656 7.8125 -7.015625 C 7.570312 -7.566406 7.226562 -8 6.78125 -8.3125 C 6.332031 -8.632812 5.796875 -8.796875 5.171875 -8.796875 C 4.554688 -8.796875 4.015625 -8.632812 3.546875 -8.3125 C 3.085938 -7.988281 2.726562 -7.554688 2.46875 -7.015625 C 2.21875 -6.484375 2.09375 -5.890625 2.09375 -5.234375 L 2.09375 -4.65625 C 2.09375 -3.894531 2.222656 -3.226562 2.484375 -2.65625 C 2.753906 -2.09375 3.128906 -1.648438 3.609375 -1.328125 C 4.097656 -1.015625 4.675781 -0.859375 5.34375 -0.859375 C 5.800781 -0.859375 6.207031 -0.929688 6.5625 -1.078125 C 6.925781 -1.222656 7.226562 -1.421875 7.46875 -1.671875 C 7.707031 -1.929688 7.882812 -2.21875 8 -2.53125 L 9.140625 -2.25 C 8.992188 -1.800781 8.75 -1.390625 8.40625 -1.015625 C 8.0625 -0.640625 7.628906 -0.34375 7.109375 -0.125 C 6.585938 0.09375 6 0.203125 5.34375 0.203125 Z M 5.34375 0.203125 "/></g></g></g><g fill="#ffffff" fill-opacity="1"><g transform="translate(159.410867, 304.967618)"><g/></g></g><g fill="#ffffff" fill-opacity="1"><g transform="translate(165.566392, 304.967618)"><g><path d="M 5.1875 3.859375 C 4.507812 3.859375 3.910156 3.765625 3.390625 3.578125 C 2.878906 3.398438 2.453125 3.148438 2.109375 2.828125 C 1.765625 2.503906 1.507812 2.125 1.34375 1.6875 L 2.359375 1.21875 C 2.492188 1.5 2.675781 1.757812 2.90625 2 C 3.144531 2.25 3.453125 2.445312 3.828125 2.59375 C 4.203125 2.738281 4.65625 2.8125 5.1875 2.8125 C 6.0625 2.8125 6.757812 2.585938 7.28125 2.140625 C 7.8125 1.703125 8.078125 1.035156 8.078125 0.140625 L 8.078125 -1.953125 L 7.984375 -1.953125 C 7.835938 -1.628906 7.632812 -1.320312 7.375 -1.03125 C 7.113281 -0.738281 6.78125 -0.5 6.375 -0.3125 C 5.976562 -0.132812 5.5 -0.046875 4.9375 -0.046875 C 4.15625 -0.046875 3.457031 -0.238281 2.84375 -0.625 C 2.238281 -1.019531 1.765625 -1.578125 1.421875 -2.296875 C 1.078125 -3.015625 0.90625 -3.875 0.90625 -4.875 C 0.90625 -5.863281 1.078125 -6.726562 1.421875 -7.46875 C 1.765625 -8.21875 2.238281 -8.800781 2.84375 -9.21875 C 3.457031 -9.632812 4.160156 -9.84375 4.953125 -9.84375 C 5.523438 -9.84375 6.007812 -9.742188 6.40625 -9.546875 C 6.8125 -9.347656 7.144531 -9.09375 7.40625 -8.78125 C 7.664062 -8.476562 7.863281 -8.164062 8 -7.84375 L 8.109375 -7.84375 L 8.109375 -9.703125 L 9.25 -9.703125 L 9.25 0.1875 C 9.25 1.019531 9.070312 1.707031 8.71875 2.25 C 8.363281 2.800781 7.878906 3.207031 7.265625 3.46875 C 6.660156 3.726562 5.96875 3.859375 5.1875 3.859375 Z M 5.109375 -1.109375 C 5.734375 -1.109375 6.269531 -1.257812 6.71875 -1.5625 C 7.164062 -1.863281 7.507812 -2.296875 7.75 -2.859375 C 7.988281 -3.429688 8.109375 -4.109375 8.109375 -4.890625 C 8.109375 -5.648438 7.988281 -6.320312 7.75 -6.90625 C 7.519531 -7.488281 7.179688 -7.941406 6.734375 -8.265625 C 6.285156 -8.597656 5.742188 -8.765625 5.109375 -8.765625 C 4.484375 -8.765625 3.941406 -8.597656 3.484375 -8.265625 C 3.035156 -7.929688 2.691406 -7.472656 2.453125 -6.890625 C 2.210938 -6.304688 2.09375 -5.640625 2.09375 -4.890625 C 2.09375 -4.128906 2.210938 -3.460938 2.453125 -2.890625 C 2.703125 -2.328125 3.050781 -1.890625 3.5 -1.578125 C 3.945312 -1.265625 4.484375 -1.109375 5.109375 -1.109375 Z M 5.109375 -1.109375 "/></g></g></g><g fill="#ffffff" fill-opacity="1"><g transform="translate(177.496331, 304.967618)"><g><path d="M 5.34375 0.203125 C 4.4375 0.203125 3.648438 -0.0078125 2.984375 -0.4375 C 2.316406 -0.863281 1.800781 -1.453125 1.4375 -2.203125 C 1.082031 -2.953125 0.90625 -3.816406 0.90625 -4.796875 C 0.90625 -5.785156 1.082031 -6.65625 1.4375 -7.40625 C 1.800781 -8.164062 2.304688 -8.757812 2.953125 -9.1875 C 3.597656 -9.625 4.335938 -9.84375 5.171875 -9.84375 C 5.734375 -9.84375 6.265625 -9.738281 6.765625 -9.53125 C 7.273438 -9.332031 7.722656 -9.03125 8.109375 -8.625 C 8.492188 -8.21875 8.796875 -7.710938 9.015625 -7.109375 C 9.242188 -6.503906 9.359375 -5.796875 9.359375 -4.984375 L 9.359375 -4.515625 L 1.65625 -4.515625 L 1.65625 -5.53125 L 8.71875 -5.53125 L 8.1875 -5.15625 C 8.1875 -5.851562 8.0625 -6.472656 7.8125 -7.015625 C 7.570312 -7.566406 7.226562 -8 6.78125 -8.3125 C 6.332031 -8.632812 5.796875 -8.796875 5.171875 -8.796875 C 4.554688 -8.796875 4.015625 -8.632812 3.546875 -8.3125 C 3.085938 -7.988281 2.726562 -7.554688 2.46875 -7.015625 C 2.21875 -6.484375 2.09375 -5.890625 2.09375 -5.234375 L 2.09375 -4.65625 C 2.09375 -3.894531 2.222656 -3.226562 2.484375 -2.65625 C 2.753906 -2.09375 3.128906 -1.648438 3.609375 -1.328125 C 4.097656 -1.015625 4.675781 -0.859375 5.34375 -0.859375 C 5.800781 -0.859375 6.207031 -0.929688 6.5625 -1.078125 C 6.925781 -1.222656 7.226562 -1.421875 7.46875 -1.671875 C 7.707031 -1.929688 7.882812 -2.21875 8 -2.53125 L 9.140625 -2.25 C 8.992188 -1.800781 8.75 -1.390625 8.40625 -1.015625 C 8.0625 -0.640625 7.628906 -0.34375 7.109375 -0.125 C 6.585938 0.09375 6 0.203125 5.34375 0.203125 Z M 5.34375 0.203125 "/></g></g></g><g fill="#ffffff" fill-opacity="1"><g transform="translate(188.978027, 304.967618)"><g><path d="M 1.421875 0 L 1.421875 -9.703125 L 2.5625 -9.703125 L 2.5625 -8.171875 L 2.640625 -8.171875 C 2.828125 -8.671875 3.15625 -9.070312 3.625 -9.375 C 4.101562 -9.675781 4.65625 -9.828125 5.28125 -9.828125 C 5.375 -9.828125 5.472656 -9.820312 5.578125 -9.8125 C 5.679688 -9.8125 5.769531 -9.8125 5.84375 -9.8125 L 5.84375 -8.625 C 5.800781 -8.644531 5.710938 -8.660156 5.578125 -8.671875 C 5.453125 -8.679688 5.3125 -8.6875 5.15625 -8.6875 C 4.664062 -8.6875 4.226562 -8.582031 3.84375 -8.375 C 3.457031 -8.164062 3.15625 -7.875 2.9375 -7.5 C 2.71875 -7.125 2.609375 -6.6875 2.609375 -6.1875 L 2.609375 0 Z M 1.421875 0 "/></g></g></g><g fill="#ffffff" fill-opacity="1"><g transform="translate(196.566169, 304.967618)"><g><path d="M 1.421875 0 L 1.421875 -9.703125 L 2.609375 -9.703125 L 2.609375 0 Z M 2.015625 -11.5625 C 1.785156 -11.5625 1.582031 -11.644531 1.40625 -11.8125 C 1.238281 -11.976562 1.15625 -12.175781 1.15625 -12.40625 C 1.15625 -12.632812 1.238281 -12.828125 1.40625 -12.984375 C 1.582031 -13.148438 1.785156 -13.234375 2.015625 -13.234375 C 2.253906 -13.234375 2.457031 -13.148438 2.625 -12.984375 C 2.789062 -12.828125 2.875 -12.632812 2.875 -12.40625 C 2.875 -12.175781 2.789062 -11.976562 2.625 -11.8125 C 2.457031 -11.644531 2.253906 -11.5625 2.015625 -11.5625 Z M 2.015625 -11.5625 "/></g></g></g><g fill="#ffffff" fill-opacity="1"><g transform="translate(201.851577, 304.967618)"><g><path d="M 1.421875 0 L 1.421875 -9.703125 L 2.5625 -9.703125 L 2.5625 -8.171875 L 2.640625 -8.171875 C 2.828125 -8.671875 3.15625 -9.070312 3.625 -9.375 C 4.101562 -9.675781 4.65625 -9.828125 5.28125 -9.828125 C 5.375 -9.828125 5.472656 -9.820312 5.578125 -9.8125 C 5.679688 -9.8125 5.769531 -9.8125 5.84375 -9.8125 L 5.84375 -8.625 C 5.800781 -8.644531 5.710938 -8.660156 5.578125 -8.671875 C 5.453125 -8.679688 5.3125 -8.6875 5.15625 -8.6875 C 4.664062 -8.6875 4.226562 -8.582031 3.84375 -8.375 C 3.457031 -8.164062 3.15625 -7.875 2.9375 -7.5 C 2.71875 -7.125 2.609375 -6.6875 2.609375 -6.1875 L 2.609375 0 Z M 1.421875 0 "/></g></g></g><g fill="#ffffff" fill-opacity="1"><g transform="translate(209.351828, 304.967618)"><g/></g></g><g fill="#ffffff" fill-opacity="1"><g transform="translate(215.507353, 304.967618)"><g><path d="M 4.546875 0.203125 C 3.890625 0.203125 3.3125 0.101562 2.8125 -0.09375 C 2.3125 -0.300781 1.898438 -0.597656 1.578125 -0.984375 C 1.253906 -1.378906 1.046875 -1.863281 0.953125 -2.4375 L 2.078125 -2.640625 C 2.203125 -2.046875 2.472656 -1.597656 2.890625 -1.296875 C 3.316406 -0.992188 3.863281 -0.84375 4.53125 -0.84375 C 5.269531 -0.84375 5.859375 -1.007812 6.296875 -1.34375 C 6.742188 -1.675781 6.96875 -2.085938 6.96875 -2.578125 C 6.96875 -2.984375 6.832031 -3.3125 6.5625 -3.5625 C 6.289062 -3.820312 5.890625 -4.007812 5.359375 -4.125 L 3.78125 -4.515625 C 2.9375 -4.710938 2.300781 -5.023438 1.875 -5.453125 C 1.457031 -5.890625 1.25 -6.441406 1.25 -7.109375 C 1.25 -7.640625 1.394531 -8.113281 1.6875 -8.53125 C 1.976562 -8.945312 2.378906 -9.269531 2.890625 -9.5 C 3.410156 -9.726562 4 -9.84375 4.65625 -9.84375 C 5.28125 -9.84375 5.820312 -9.742188 6.28125 -9.546875 C 6.738281 -9.347656 7.109375 -9.0625 7.390625 -8.6875 C 7.679688 -8.320312 7.882812 -7.890625 8 -7.390625 L 6.921875 -7.171875 C 6.785156 -7.648438 6.535156 -8.046875 6.171875 -8.359375 C 5.816406 -8.671875 5.3125 -8.828125 4.65625 -8.828125 C 4.007812 -8.828125 3.476562 -8.671875 3.0625 -8.359375 C 2.644531 -8.046875 2.4375 -7.640625 2.4375 -7.140625 C 2.4375 -6.734375 2.578125 -6.398438 2.859375 -6.140625 C 3.140625 -5.878906 3.578125 -5.679688 4.171875 -5.546875 L 5.6875 -5.1875 C 6.519531 -4.988281 7.140625 -4.675781 7.546875 -4.25 C 7.960938 -3.832031 8.171875 -3.296875 8.171875 -2.640625 C 8.171875 -2.078125 8.015625 -1.582031 7.703125 -1.15625 C 7.398438 -0.726562 6.972656 -0.394531 6.421875 -0.15625 C 5.878906 0.0820312 5.253906 0.203125 4.546875 0.203125 Z M 4.546875 0.203125 "/></g></g></g><g fill="#ffffff" fill-opacity="1"><g transform="translate(225.85526, 304.967618)"><g><path d="M 5.34375 0.203125 C 4.4375 0.203125 3.648438 -0.0078125 2.984375 -0.4375 C 2.316406 -0.863281 1.800781 -1.453125 1.4375 -2.203125 C 1.082031 -2.953125 0.90625 -3.816406 0.90625 -4.796875 C 0.90625 -5.785156 1.082031 -6.65625 1.4375 -7.40625 C 1.800781 -8.164062 2.304688 -8.757812 2.953125 -9.1875 C 3.597656 -9.625 4.335938 -9.84375 5.171875 -9.84375 C 5.734375 -9.84375 6.265625 -9.738281 6.765625 -9.53125 C 7.273438 -9.332031 7.722656 -9.03125 8.109375 -8.625 C 8.492188 -8.21875 8.796875 -7.710938 9.015625 -7.109375 C 9.242188 -6.503906 9.359375 -5.796875 9.359375 -4.984375 L 9.359375 -4.515625 L 1.65625 -4.515625 L 1.65625 -5.53125 L 8.71875 -5.53125 L 8.1875 -5.15625 C 8.1875 -5.851562 8.0625 -6.472656 7.8125 -7.015625 C 7.570312 -7.566406 7.226562 -8 6.78125 -8.3125 C 6.332031 -8.632812 5.796875 -8.796875 5.171875 -8.796875 C 4.554688 -8.796875 4.015625 -8.632812 3.546875 -8.3125 C 3.085938 -7.988281 2.726562 -7.554688 2.46875 -7.015625 C 2.21875 -6.484375 2.09375 -5.890625 2.09375 -5.234375 L 2.09375 -4.65625 C 2.09375 -3.894531 2.222656 -3.226562 2.484375 -2.65625 C 2.753906 -2.09375 3.128906 -1.648438 3.609375 -1.328125 C 4.097656 -1.015625 4.675781 -0.859375 5.34375 -0.859375 C 5.800781 -0.859375 6.207031 -0.929688 6.5625 -1.078125 C 6.925781 -1.222656 7.226562 -1.421875 7.46875 -1.671875 C 7.707031 -1.929688 7.882812 -2.21875 8 -2.53125 L 9.140625 -2.25 C 8.992188 -1.800781 8.75 -1.390625 8.40625 -1.015625 C 8.0625 -0.640625 7.628906 -0.34375 7.109375 -0.125 C 6.585938 0.09375 6 0.203125 5.34375 0.203125 Z M 5.34375 0.203125 "/></g></g></g><g fill="#ffffff" fill-opacity="1"><g transform="translate(237.336956, 304.967618)"><g><path d="M 4.796875 0.140625 C 4.140625 0.140625 3.554688 0.00390625 3.046875 -0.265625 C 2.535156 -0.546875 2.132812 -0.953125 1.84375 -1.484375 C 1.5625 -2.023438 1.421875 -2.679688 1.421875 -3.453125 L 1.421875 -9.703125 L 2.609375 -9.703125 L 2.609375 -3.546875 C 2.609375 -2.734375 2.832031 -2.09375 3.28125 -1.625 C 3.726562 -1.164062 4.332031 -0.9375 5.09375 -0.9375 C 5.601562 -0.9375 6.0625 -1.046875 6.46875 -1.265625 C 6.875 -1.484375 7.195312 -1.796875 7.4375 -2.203125 C 7.675781 -2.617188 7.796875 -3.113281 7.796875 -3.6875 L 7.796875 -9.703125 L 8.96875 -9.703125 L 8.96875 0 L 7.828125 0 L 7.828125 -2.265625 L 8.046875 -2.265625 C 7.765625 -1.421875 7.332031 -0.804688 6.75 -0.421875 C 6.175781 -0.046875 5.523438 0.140625 4.796875 0.140625 Z M 4.796875 0.140625 "/></g></g></g><g fill="#ffffff" fill-opacity="1"><g transform="translate(248.994434, 304.967618)"><g/></g></g><g fill="#ffffff" fill-opacity="1"><g transform="translate(255.149959, 304.967618)"><g><path d="M 4.9375 0.203125 C 4.144531 0.203125 3.441406 -0.00390625 2.828125 -0.421875 C 2.222656 -0.847656 1.75 -1.4375 1.40625 -2.1875 C 1.070312 -2.945312 0.90625 -3.828125 0.90625 -4.828125 C 0.90625 -5.828125 1.070312 -6.703125 1.40625 -7.453125 C 1.75 -8.210938 2.222656 -8.800781 2.828125 -9.21875 C 3.441406 -9.632812 4.148438 -9.84375 4.953125 -9.84375 C 5.515625 -9.84375 5.992188 -9.742188 6.390625 -9.546875 C 6.796875 -9.347656 7.128906 -9.09375 7.390625 -8.78125 C 7.648438 -8.476562 7.847656 -8.164062 7.984375 -7.84375 L 8.0625 -7.84375 L 8.0625 -13.09375 L 9.234375 -13.09375 L 9.234375 0 L 8.09375 0 L 8.09375 -1.8125 L 7.984375 -1.8125 C 7.847656 -1.488281 7.644531 -1.171875 7.375 -0.859375 C 7.113281 -0.554688 6.785156 -0.300781 6.390625 -0.09375 C 5.992188 0.101562 5.507812 0.203125 4.9375 0.203125 Z M 5.09375 -0.875 C 5.71875 -0.875 6.253906 -1.039062 6.703125 -1.375 C 7.160156 -1.707031 7.503906 -2.171875 7.734375 -2.765625 C 7.972656 -3.367188 8.09375 -4.0625 8.09375 -4.84375 C 8.09375 -5.613281 7.972656 -6.296875 7.734375 -6.890625 C 7.503906 -7.484375 7.164062 -7.941406 6.71875 -8.265625 C 6.269531 -8.597656 5.726562 -8.765625 5.09375 -8.765625 C 4.46875 -8.765625 3.929688 -8.597656 3.484375 -8.265625 C 3.035156 -7.929688 2.691406 -7.46875 2.453125 -6.875 C 2.210938 -6.28125 2.09375 -5.601562 2.09375 -4.84375 C 2.09375 -4.082031 2.210938 -3.398438 2.453125 -2.796875 C 2.691406 -2.203125 3.035156 -1.734375 3.484375 -1.390625 C 3.929688 -1.046875 4.46875 -0.875 5.09375 -0.875 Z M 5.09375 -0.875 "/></g></g></g><g fill="#ffffff" fill-opacity="1"><g transform="translate(267.071108, 304.967618)"><g><path d="M 1.421875 0 L 1.421875 -9.703125 L 2.609375 -9.703125 L 2.609375 0 Z M 2.015625 -11.5625 C 1.785156 -11.5625 1.582031 -11.644531 1.40625 -11.8125 C 1.238281 -11.976562 1.15625 -12.175781 1.15625 -12.40625 C 1.15625 -12.632812 1.238281 -12.828125 1.40625 -12.984375 C 1.582031 -13.148438 1.785156 -13.234375 2.015625 -13.234375 C 2.253906 -13.234375 2.457031 -13.148438 2.625 -12.984375 C 2.789062 -12.828125 2.875 -12.632812 2.875 -12.40625 C 2.875 -12.175781 2.789062 -11.976562 2.625 -11.8125 C 2.457031 -11.644531 2.253906 -11.5625 2.015625 -11.5625 Z M 2.015625 -11.5625 "/></g></g></g><g fill="#ffffff" fill-opacity="1"><g transform="translate(272.356516, 304.967618)"><g><path d="M 2.609375 -6.015625 L 2.609375 0 L 1.421875 0 L 1.421875 -9.703125 L 2.5625 -9.703125 L 2.5625 -7.4375 L 2.359375 -7.4375 C 2.628906 -8.28125 3.050781 -8.890625 3.625 -9.265625 C 4.195312 -9.648438 4.851562 -9.84375 5.59375 -9.84375 C 6.257812 -9.84375 6.84375 -9.703125 7.34375 -9.421875 C 7.851562 -9.148438 8.25 -8.75 8.53125 -8.21875 C 8.820312 -7.6875 8.96875 -7.03125 8.96875 -6.25 L 8.96875 0 L 7.796875 0 L 7.796875 -6.15625 C 7.796875 -6.96875 7.566406 -7.601562 7.109375 -8.0625 C 6.660156 -8.53125 6.0625 -8.765625 5.3125 -8.765625 C 4.800781 -8.765625 4.335938 -8.65625 3.921875 -8.4375 C 3.515625 -8.21875 3.191406 -7.898438 2.953125 -7.484375 C 2.722656 -7.078125 2.609375 -6.585938 2.609375 -6.015625 Z M 2.609375 -6.015625 "/></g></g></g><g fill="#ffffff" fill-opacity="1"><g transform="translate(284.013993, 304.967618)"><g><path d="M 2.609375 -6.015625 L 2.609375 0 L 1.421875 0 L 1.421875 -13.09375 L 2.609375 -13.09375 L 2.609375 -7.4375 L 2.359375 -7.4375 C 2.628906 -8.28125 3.050781 -8.890625 3.625 -9.265625 C 4.195312 -9.648438 4.851562 -9.84375 5.59375 -9.84375 C 6.257812 -9.84375 6.84375 -9.703125 7.34375 -9.421875 C 7.851562 -9.148438 8.25 -8.75 8.53125 -8.21875 C 8.820312 -7.6875 8.96875 -7.03125 8.96875 -6.25 L 8.96875 0 L 7.796875 0 L 7.796875 -6.15625 C 7.796875 -6.96875 7.566406 -7.601562 7.109375 -8.0625 C 6.660156 -8.53125 6.0625 -8.765625 5.3125 -8.765625 C 4.800781 -8.765625 4.335938 -8.65625 3.921875 -8.4375 C 3.515625 -8.21875 3.191406 -7.898438 2.953125 -7.484375 C 2.722656 -7.078125 2.609375 -6.585938 2.609375 -6.015625 Z M 2.609375 -6.015625 "/></g></g></g><g fill="#ffffff" fill-opacity="1"><g transform="translate(295.671471, 304.967618)"><g><path d="M 5.34375 0.203125 C 4.4375 0.203125 3.648438 -0.0078125 2.984375 -0.4375 C 2.316406 -0.863281 1.800781 -1.453125 1.4375 -2.203125 C 1.082031 -2.953125 0.90625 -3.816406 0.90625 -4.796875 C 0.90625 -5.785156 1.082031 -6.65625 1.4375 -7.40625 C 1.800781 -8.164062 2.304688 -8.757812 2.953125 -9.1875 C 3.597656 -9.625 4.335938 -9.84375 5.171875 -9.84375 C 5.734375 -9.84375 6.265625 -9.738281 6.765625 -9.53125 C 7.273438 -9.332031 7.722656 -9.03125 8.109375 -8.625 C 8.492188 -8.21875 8.796875 -7.710938 9.015625 -7.109375 C 9.242188 -6.503906 9.359375 -5.796875 9.359375 -4.984375 L 9.359375 -4.515625 L 1.65625 -4.515625 L 1.65625 -5.53125 L 8.71875 -5.53125 L 8.1875 -5.15625 C 8.1875 -5.851562 8.0625 -6.472656 7.8125 -7.015625 C 7.570312 -7.566406 7.226562 -8 6.78125 -8.3125 C 6.332031 -8.632812 5.796875 -8.796875 5.171875 -8.796875 C 4.554688 -8.796875 4.015625 -8.632812 3.546875 -8.3125 C 3.085938 -7.988281 2.726562 -7.554688 2.46875 -7.015625 C 2.21875 -6.484375 2.09375 -5.890625 2.09375 -5.234375 L 2.09375 -4.65625 C 2.09375 -3.894531 2.222656 -3.226562 2.484375 -2.65625 C 2.753906 -2.09375 3.128906 -1.648438 3.609375 -1.328125 C 4.097656 -1.015625 4.675781 -0.859375 5.34375 -0.859375 C 5.800781 -0.859375 6.207031 -0.929688 6.5625 -1.078125 C 6.925781 -1.222656 7.226562 -1.421875 7.46875 -1.671875 C 7.707031 -1.929688 7.882812 -2.21875 8 -2.53125 L 9.140625 -2.25 C 8.992188 -1.800781 8.75 -1.390625 8.40625 -1.015625 C 8.0625 -0.640625 7.628906 -0.34375 7.109375 -0.125 C 6.585938 0.09375 6 0.203125 5.34375 0.203125 Z M 5.34375 0.203125 "/></g></g></g><g fill="#ffffff" fill-opacity="1"><g transform="translate(307.153167, 304.967618)"><g><path d="M 1.421875 0 L 1.421875 -9.703125 L 2.609375 -9.703125 L 2.609375 0 Z M 2.015625 -11.5625 C 1.785156 -11.5625 1.582031 -11.644531 1.40625 -11.8125 C 1.238281 -11.976562 1.15625 -12.175781 1.15625 -12.40625 C 1.15625 -12.632812 1.238281 -12.828125 1.40625 -12.984375 C 1.582031 -13.148438 1.785156 -13.234375 2.015625 -13.234375 C 2.253906 -13.234375 2.457031 -13.148438 2.625 -12.984375 C 2.789062 -12.828125 2.875 -12.632812 2.875 -12.40625 C 2.875 -12.175781 2.789062 -11.976562 2.625 -11.8125 C 2.457031 -11.644531 2.253906 -11.5625 2.015625 -11.5625 Z M 2.015625 -11.5625 "/></g></g></g><g fill="#ffffff" fill-opacity="1"><g transform="translate(312.438575, 304.967618)"><g><path d="M 1.421875 0 L 1.421875 -9.703125 L 2.5625 -9.703125 L 2.5625 -8.171875 L 2.640625 -8.171875 C 2.828125 -8.671875 3.15625 -9.070312 3.625 -9.375 C 4.101562 -9.675781 4.65625 -9.828125 5.28125 -9.828125 C 5.375 -9.828125 5.472656 -9.820312 5.578125 -9.8125 C 5.679688 -9.8125 5.769531 -9.8125 5.84375 -9.8125 L 5.84375 -8.625 C 5.800781 -8.644531 5.710938 -8.660156 5.578125 -8.671875 C 5.453125 -8.679688 5.3125 -8.6875 5.15625 -8.6875 C 4.664062 -8.6875 4.226562 -8.582031 3.84375 -8.375 C 3.457031 -8.164062 3.15625 -7.875 2.9375 -7.5 C 2.71875 -7.125 2.609375 -6.6875 2.609375 -6.1875 L 2.609375 0 Z M 1.421875 0 "/></g></g></g><g fill="#ffffff" fill-opacity="1"><g transform="translate(319.657576, 304.967618)"><g><path d="M 5.21875 0.203125 C 4.375 0.203125 3.625 -0.0078125 2.96875 -0.4375 C 2.320312 -0.863281 1.816406 -1.453125 1.453125 -2.203125 C 1.085938 -2.960938 0.90625 -3.832031 0.90625 -4.8125 C 0.90625 -5.800781 1.085938 -6.671875 1.453125 -7.421875 C 1.816406 -8.179688 2.320312 -8.773438 2.96875 -9.203125 C 3.625 -9.628906 4.375 -9.84375 5.21875 -9.84375 C 6.070312 -9.84375 6.820312 -9.628906 7.46875 -9.203125 C 8.125 -8.773438 8.632812 -8.179688 9 -7.421875 C 9.363281 -6.671875 9.546875 -5.800781 9.546875 -4.8125 C 9.546875 -3.832031 9.363281 -2.960938 9 -2.203125 C 8.632812 -1.453125 8.125 -0.863281 7.46875 -0.4375 C 6.820312 -0.0078125 6.070312 0.203125 5.21875 0.203125 Z M 5.21875 -0.859375 C 5.882812 -0.859375 6.453125 -1.035156 6.921875 -1.390625 C 7.390625 -1.742188 7.742188 -2.21875 7.984375 -2.8125 C 8.234375 -3.414062 8.359375 -4.082031 8.359375 -4.8125 C 8.359375 -5.550781 8.234375 -6.21875 7.984375 -6.8125 C 7.742188 -7.414062 7.390625 -7.894531 6.921875 -8.25 C 6.453125 -8.601562 5.882812 -8.78125 5.21875 -8.78125 C 4.5625 -8.78125 4 -8.597656 3.53125 -8.234375 C 3.070312 -7.878906 2.71875 -7.40625 2.46875 -6.8125 C 2.21875 -6.21875 2.09375 -5.550781 2.09375 -4.8125 C 2.09375 -4.070312 2.21875 -3.40625 2.46875 -2.8125 C 2.71875 -2.21875 3.070312 -1.742188 3.53125 -1.390625 C 4 -1.035156 4.5625 -0.859375 5.21875 -0.859375 Z M 5.21875 -0.859375 "/></g></g></g></svg>